<?xml version="1.0" encoding="UTF-8" standalone="no"?>
<!-- Created with Inkscape (http://www.inkscape.org/) -->

<svg
   width="210mm"
   height="297mm"
   viewBox="0 0 793.70081 1122.5197"
   version="1.1"
   id="svg5"
   inkscape:version="1.3.2 (091e20e, 2023-11-25, custom)"
   xml:space="preserve"
   sodipodi:docname="adiumGirlsTxt.svg"
   xmlns:inkscape="http://www.inkscape.org/namespaces/inkscape"
   xmlns:sodipodi="http://sodipodi.sourceforge.net/DTD/sodipodi-0.dtd"
   xmlns="http://www.w3.org/2000/svg"
   xmlns:svg="http://www.w3.org/2000/svg"><sodipodi:namedview
     id="namedview7"
     pagecolor="#ffffff"
     bordercolor="#666666"
     borderopacity="1.0"
     inkscape:showpageshadow="2"
     inkscape:pageopacity="0.0"
     inkscape:pagecheckerboard="0"
     inkscape:deskcolor="#d1d1d1"
     inkscape:document-units="mm"
     showgrid="false"
     inkscape:zoom="0.72426347"
     inkscape:cx="430.09211"
     inkscape:cy="671.71688"
     inkscape:window-width="1920"
     inkscape:window-height="1009"
     inkscape:window-x="-8"
     inkscape:window-y="-8"
     inkscape:window-maximized="1"
     inkscape:current-layer="layer1" /><defs
     id="defs2" /><g
     inkscape:label="Layer 1"
     inkscape:groupmode="layer"
     id="layer1"><path
       style="fill:#000000"
       d="m 460.49184,525.60104 c -6.34989,-1.34122 -9.92163,-5.21691 -10.91939,-11.8486 -0.77693,-5.16392 0.42634,-11.81559 3.08149,-17.03445 3.91225,-7.6898 11.48502,-14.51463 20.77706,-18.72498 3.20165,-1.45071 9.3385,-3.57495 10.3279,-3.57495 0.37044,0 0.91356,1.1168 1.33365,2.74234 0.19815,0.76673 -0.16994,1.03218 -3.82341,2.75729 -7.29265,3.44349 -11.02845,6.43594 -14.13216,11.32016 -1.73884,2.73637 -3.57216,6.52576 -3.28984,6.79995 0.0834,0.081 1.16539,-0.18514 2.40445,-0.59139 8.99298,-2.94853 17.91445,0.64289 19.8,7.97067 0.64032,2.48847 0.26793,7.04571 -0.79744,9.75903 -1.19576,3.0454 -5.27079,7.03084 -8.90398,8.70822 -4.6972,2.16862 -10.66187,2.81431 -15.85833,1.71671 z m 9.16518,-5.16175 c 1.77219,-0.72741 3.30888,-2.35458 4.44327,-4.70485 0.85266,-1.76659 0.98932,-2.55743 0.99701,-5.76941 0.0104,-4.33726 -0.6695,-6.13229 -2.86556,-7.56569 -1.78601,-1.16574 -4.34007,-0.97331 -7.76976,0.58539 -3.12215,1.41893 -3.14758,1.48728 -3.15082,8.46918 -0.002,4.54358 0.0991,5.40179 0.79041,6.69995 1.33069,2.49896 4.61493,3.4924 7.55545,2.28543 z m -97.86726,4.83612 c -8.38097,-2.19464 -12.49716,-11.16326 -11.12674,-24.24365 0.61583,-5.87799 1.70954,-9.88654 3.87836,-14.21458 3.20546,-6.39672 8.31876,-10.5896 14.45404,-11.85223 3.62752,-0.74654 6.49091,-0.67603 9.52661,0.23459 2.21137,0.66334 2.95702,1.12757 4.93235,3.07081 4.03207,3.96656 5.55563,8.29783 5.56747,15.82758 0.0123,7.80376 -1.5438,14.80566 -4.51666,20.32379 -1.82161,3.38119 -6.32857,7.83593 -9.34124,9.23299 -4.27029,1.98025 -9.55535,2.6207 -13.37419,1.6207 z m 7.61002,-4.96834 c 2.99833,-2.35794 5.85227,-8.63296 7.63783,-16.79349 0.92789,-4.24072 1.03352,-5.50161 1.0498,-12.53175 0.018,-7.7857 0.0139,-7.82484 -1.03341,-9.89604 -1.82809,-3.61514 -4.25058,-3.9207 -7.50565,-0.94672 -6.63627,6.06318 -11.08307,31.10584 -6.92799,39.01577 1.41368,2.69121 4.21669,3.16761 6.77942,1.15223 z m -65.43357,4.26758 c 0.076,-2.88369 0.41857,-3.36721 5.34359,-7.54326 16.3444,-13.85882 23.34812,-23.32158 23.37096,-31.5766 0.0133,-4.81968 -1.63715,-6.86441 -5.22395,-6.47177 -2.09549,0.22938 -3.30843,1.0028 -4.63771,2.95717 -0.98081,1.44203 -1.05325,1.8175 -1.05325,5.45903 v 3.91048 l -1.90978,0.95272 c -2.29341,1.14411 -5.69543,1.25628 -7.29183,0.24042 -3.54392,-2.25516 -3.25466,-7.79939 0.62184,-11.91868 2.20036,-2.33817 5.8654,-4.28812 9.9164,-5.27593 3.12075,-0.76097 9.62141,-0.54031 12.46084,0.42297 3.40269,1.15437 5.99399,3.13946 7.282,5.57845 2.5679,4.86263 0.98344,11.88751 -4.23846,18.79156 -2.34541,3.10094 -9.17985,9.61986 -14.82897,14.14435 l -4.41503,3.53608 10.11236,0.0991 c 11.48709,0.11261 10.42002,-0.28789 9.7189,3.64775 -0.2164,1.21475 -0.47839,2.5855 -0.58219,3.04612 l -0.18874,0.8375 h -17.23954 -17.23953 z m 88.15049,0 c 0.0761,-2.88369 0.41857,-3.36721 5.34359,-7.54326 16.3444,-13.85882 23.34812,-23.32158 23.37096,-31.5766 0.0133,-4.81968 -1.63715,-6.86441 -5.22395,-6.47177 -2.09549,0.22938 -3.30843,1.0028 -4.63771,2.95717 -0.98081,1.44203 -1.05325,1.8175 -1.05325,5.45903 v 3.91048 l -1.90978,0.95272 c -2.29342,1.14411 -5.69543,1.25628 -7.29183,0.24042 -3.54392,-2.25516 -3.25466,-7.79939 0.62184,-11.91868 2.20036,-2.33817 5.8654,-4.28812 9.9164,-5.27593 3.12075,-0.76097 9.62141,-0.54031 12.46084,0.42297 3.40269,1.15437 5.99399,3.13946 7.28199,5.57845 2.56791,4.86263 0.98344,11.88751 -4.23845,18.79156 -2.34541,3.10094 -9.17985,9.61986 -14.82897,14.14435 l -4.41503,3.53608 10.11236,0.0991 c 11.48709,0.11261 10.42002,-0.28789 9.7189,3.64775 -0.2164,1.21475 -0.47839,2.5855 -0.5822,3.04612 l -0.18874,0.8375 H 419.33414 402.09461 Z M 123.65405,453.42053 c -4.16391,-1.79733 -4.21683,-5.62569 -0.1682,-12.16789 1.04109,-1.68229 1.89288,-3.10814 1.89288,-3.16854 0,-0.0604 -0.60364,-0.21982 -1.34142,-0.35424 -0.73778,-0.13442 -1.34142,-0.36122 -1.34142,-0.504 0,-0.14278 -0.86722,-6.60737 -1.92716,-14.36574 -2.13643,-15.63789 -2.26311,-16.08073 -4.79706,-16.76995 -1.3932,-0.37894 -1.53338,-0.53659 -1.73139,-1.9472 -0.24883,-1.77268 -0.95265,-1.48158 6.50746,-2.69145 5.01985,-0.81411 6.18835,-0.70431 7.41612,0.69688 0.35395,0.40395 1.10121,4.86364 2.1616,12.90062 0.89134,6.75579 1.71202,12.59231 1.82372,12.97006 0.23155,0.78304 2.5273,-2.72856 6.28922,-9.62008 4.05206,-7.42302 5.06899,-11.24072 3.42064,-12.84158 -0.42159,-0.40944 -0.93899,-0.74444 -1.14979,-0.74444 -0.21079,0 -0.38326,-0.73375 -0.38326,-1.63055 v -1.63055 l 4.37737,-0.45794 4.37737,-0.45793 1.37157,1.016 c 0.75437,0.55881 1.37158,1.25469 1.37158,1.54642 0,0.7403 -2.57728,7.3691 -3.7392,9.61728 -0.52902,1.0236 -5.19785,8.3098 -10.37517,16.19155 -5.17732,7.88175 -9.58594,14.9512 -9.79693,15.70989 -0.3219,1.15749 -0.26955,1.50184 0.32535,2.14026 0.76303,0.81884 2.47761,1.00124 3.65573,0.38889 0.94203,-0.48963 1.28535,0.47797 0.77854,2.19419 -0.57277,1.93958 -1.36421,2.86543 -3.17871,3.7185 -1.89659,0.89167 -4.1462,0.99243 -5.83944,0.26154 z m 120.76642,-0.045 c -4.09743,-1.00437 -5.71779,-2.45614 -6.34896,-5.68836 -0.45453,-2.32767 0.0323,-4.33336 1.39307,-5.73964 2.08648,-2.15624 5.06499,-2.73656 7.28824,-1.42001 1.8744,1.10997 2.19637,1.9793 1.27604,3.44532 -1.90807,3.03938 -0.45637,5.53268 3.37818,5.80205 6.06986,0.4264 10.38892,-4.62729 11.40438,-13.34417 l 0.27687,-2.37667 -1.83973,1.57273 c -3.86413,3.30334 -9.66851,3.57284 -14.21441,0.66 -3.70823,-2.3761 -5.53754,-6.57725 -5.51336,-12.66187 0.0487,-12.26534 5.73136,-20.25128 15.89873,-22.3429 3.65555,-0.75202 6.38007,-0.70042 10.00342,0.18944 3.03074,0.74433 3.10037,0.74494 6.10936,0.0531 2.77585,-0.63824 3.15246,-0.64968 4.2799,-0.12999 0.93881,0.43275 1.19376,0.75578 1.05976,1.34274 -0.097,0.4251 -1.40042,8.21138 -2.89638,17.30285 -1.49597,9.09146 -3.07059,17.63391 -3.49916,18.9832 -2.3035,7.25226 -6.80629,11.89696 -13.6085,14.03737 -2.67189,0.84075 -11.51567,1.03346 -14.44745,0.31482 z m 15.56918,-20.91129 c 1.53576,-1.42815 3.24255,-5.05353 4.30501,-9.1442 1.08165,-4.16458 3.48341,-18.05617 3.17378,-18.35689 -0.12202,-0.1185 -1.26387,-0.30721 -2.53747,-0.41937 -1.98873,-0.17514 -2.6115,-0.0633 -4.41159,0.79199 -5.49962,2.61318 -8.14524,9.23192 -7.82225,19.56947 0.1716,5.49245 0.83391,7.59498 2.67497,8.49192 1.33218,0.64901 3.35618,0.24009 4.61755,-0.93292 z m 463.3918,19.76217 c -0.24028,-0.70007 0.64001,-6.95224 3.12092,-22.1662 3.92318,-24.05849 3.89358,-22.73561 0.53064,-23.72113 -1.69066,-0.49545 -1.78626,-0.59618 -1.94297,-2.04721 -0.0906,-0.83936 -0.14941,-1.55201 -0.13059,-1.58366 0.0188,-0.0316 3.00001,-0.49194 6.62485,-1.02289 l 6.59062,-0.96535 1.36208,0.78049 c 1.27349,0.72973 1.36209,0.90225 1.36209,2.65224 v 1.87173 l 1.75337,-1.56963 c 3.64539,-3.26338 9.0598,-4.51763 13.78783,-3.19397 2.87685,0.80541 5.83876,3.56307 6.84064,6.36891 2.09045,5.85447 0.61247,16.70906 -2.98682,21.93583 -4.75955,6.91165 -13.70967,10.04712 -21.40715,7.4995 -1.42286,-0.47093 -2.58703,-0.78873 -2.58703,-0.70623 0,0.0825 -0.35498,2.40988 -0.78884,5.17195 -1.01798,6.48073 -0.94746,7.14154 0.88466,8.28943 1.39176,0.87199 1.69014,1.56369 1.2046,2.79252 -0.20008,0.50639 -1.18776,0.58878 -7.05843,0.58878 h -6.82579 z m 22.68146,-19.65758 c 2.18086,-1.24124 4.4792,-4.50762 5.55756,-7.89835 1.7764,-5.58561 2.01822,-14.16398 0.48163,-17.08557 -2.387,-4.53851 -8.72423,-2.34463 -11.19697,3.87627 -1.11752,2.81144 -4.06098,20.09832 -3.55486,20.87757 1.09893,1.69196 5.92041,1.81929 8.71264,0.23008 z m -350.35654,5.4088 c -1.64076,-0.40923 -4.30719,-1.97105 -5.56706,-3.26083 -2.70081,-2.76493 -3.92808,-7.95119 -3.35675,-14.18511 0.58182,-6.34843 2.46577,-10.74654 6.126,-14.30131 5.03325,-4.88823 13.22583,-6.71001 20.58593,-4.57769 1.87581,0.54345 2.22034,0.53391 5.16297,-0.14292 2.79952,-0.64392 3.27244,-0.66526 4.21808,-0.19034 0.58578,0.29419 1.06506,0.77361 1.06506,1.06538 0,0.29176 -0.69706,4.68431 -1.54902,9.76121 -2.69627,16.06717 -3.05988,18.75358 -2.64119,19.51336 0.46676,0.84703 2.38103,0.93025 3.88379,0.16885 1.00716,-0.5103 1.04655,-0.49041 1.46449,0.73945 0.23621,0.69512 0.31842,1.43838 0.18268,1.65169 -0.13574,0.2133 -1.23495,0.87226 -2.44268,1.46436 -6.4025,3.13885 -11.60559,2.91814 -13.46206,-0.57103 -0.3162,-0.59427 -0.62118,-1.15336 -0.67775,-1.24242 -0.0566,-0.0891 -0.74644,0.44705 -1.53305,1.19135 -0.78661,0.74429 -2.28977,1.7217 -3.34034,2.172 -2.06708,0.886 -6.07662,1.25342 -8.1191,0.744 z m 8.57519,-4.86197 c 1.58386,-0.9379 3.32668,-3.8885 4.51534,-7.64451 1.15926,-3.66308 4.12048,-19.97386 3.70033,-20.3819 -0.57012,-0.5537 -4.07257,-0.7304 -5.75288,-0.29025 -2.27502,0.59594 -5.12684,3.25381 -6.56286,6.1165 -1.76743,3.52337 -2.41076,6.80547 -2.45182,12.50844 -0.0411,5.70072 0.41306,7.75807 2.06696,9.36431 1.2969,1.25953 2.73371,1.36442 4.48493,0.32741 z m 101.42129,4.86197 c -1.64077,-0.40923 -4.30719,-1.97105 -5.56706,-3.26083 -2.70081,-2.76493 -3.92809,-7.95119 -3.35676,-14.18511 0.58183,-6.34843 2.46577,-10.74654 6.126,-14.30131 5.03326,-4.88823 13.22584,-6.71001 20.58594,-4.57769 1.87581,0.54345 2.22034,0.53391 5.16296,-0.14292 2.79953,-0.64392 3.27245,-0.66526 4.21809,-0.19034 0.58578,0.29419 1.06506,0.77361 1.06506,1.06538 0,0.29176 -0.69706,4.68431 -1.54903,9.76121 -2.69626,16.06717 -3.05987,18.75358 -2.64118,19.51336 0.46676,0.84703 2.38103,0.93025 3.88379,0.16885 1.00716,-0.5103 1.04655,-0.49041 1.46448,0.73945 0.23622,0.69512 0.31843,1.43838 0.18269,1.65169 -0.13574,0.2133 -1.23495,0.87226 -2.44268,1.46436 -6.4025,3.13885 -11.6056,2.91814 -13.46207,-0.57103 -0.31619,-0.59427 -0.62117,-1.15336 -0.67774,-1.24242 -0.0566,-0.0891 -0.74644,0.44705 -1.53305,1.19135 -0.78661,0.74429 -2.28977,1.7217 -3.34035,2.172 -2.06707,0.886 -6.07662,1.25342 -8.11909,0.744 z m 8.57519,-4.86197 c 1.58386,-0.9379 3.32667,-3.8885 4.51534,-7.64451 1.15926,-3.66308 4.12048,-19.97386 3.70033,-20.3819 -0.57012,-0.5537 -4.07258,-0.7304 -5.75289,-0.29025 -2.27501,0.59594 -5.12683,3.25381 -6.56285,6.1165 -1.76743,3.52337 -2.41076,6.80547 -2.45183,12.50844 -0.041,5.70072 0.41307,7.75807 2.06697,9.36431 1.2969,1.25953 2.73371,1.36442 4.48493,0.32741 z m 58.17697,4.82327 c -10.65809,-1.87908 -15.40612,-9.83981 -14.06703,-23.58532 0.57724,-5.92533 1.59102,-9.68832 3.77366,-14.00728 1.44069,-2.8508 2.3513,-4.07953 4.69877,-6.34026 5.1768,-4.98552 10.25933,-6.83851 18.81717,-6.86034 5.88404,-0.015 9.33903,0.76316 12.14125,2.73459 2.67011,1.87848 3.3809,3.1856 3.3809,6.21731 0,2.26985 -0.146,2.84039 -1.04775,4.09441 -1.58804,2.20839 -3.34595,3.20649 -5.61739,3.1894 -2.06685,-0.0156 -3.63643,-0.63462 -4.81462,-1.89899 -0.66565,-0.71435 -0.6923,-0.9303 -0.24579,-1.99227 1.82827,-4.34829 1.82555,-5.62706 -0.0152,-7.13132 -2.20106,-1.79871 -7.03238,-1.54756 -10.42489,0.54191 -4.95153,3.04969 -8.22678,11.41755 -8.90172,22.74282 -0.49989,8.38795 1.19033,13.87124 4.97542,16.1409 1.70456,1.0221 2.1929,1.13106 5.06953,1.13106 4.59351,0 4.83359,-0.2898 5.93987,-7.17002 0.59594,-3.7063 0.7322,-5.42685 0.45138,-5.69958 -0.22124,-0.21486 -1.46079,-0.58602 -2.75457,-0.82481 -2.56904,-0.47416 -2.58803,-0.50423 -2.10632,-3.33464 l 0.23756,-1.39583 h 8.69734 8.69734 l -1.54661,9.08813 -1.54661,9.08813 -2.31427,1.28172 c -2.68715,1.48823 -5.58557,2.6194 -8.82974,3.44599 -2.76115,0.70352 -9.98197,1.01427 -12.64768,0.54429 z m 115.25553,-0.15097 c -3.81537,-1.20894 -5.92457,-4.10634 -5.93851,-8.1577 -0.004,-1.26391 0.65272,-6.44619 1.46017,-11.51618 l 1.46808,-9.21817 -0.77379,-1.01787 c -0.48968,-0.64414 -1.34741,-1.14409 -2.33609,-1.36165 -1.47174,-0.32385 -1.57206,-0.43174 -1.73054,-1.8611 -0.0925,-0.83452 -0.0647,-1.6201 0.0619,-1.74572 0.12658,-0.12563 3.28449,-0.61474 7.01759,-1.08692 6.5122,-0.82369 6.84699,-0.83242 8.25616,-0.21528 l 1.46873,0.64322 -1.62134,9.74918 c -2.35108,14.13712 -2.69791,17.59008 -1.94067,19.32059 1.52792,3.4917 5.57325,1.7468 9.01861,-3.89005 2.07424,-3.39361 3.00195,-6.6494 4.72113,-16.56878 l 1.62891,-9.39854 h 5.41486 5.41486 l -1.05086,6.23468 c -3.375,20.02366 -3.84582,23.3263 -3.44666,24.17713 0.47134,1.00466 1.71759,1.11464 3.66699,0.3236 l 1.30866,-0.53104 0.44191,1.30042 c 0.24305,0.71523 0.3816,1.35291 0.30789,1.41707 -0.85848,0.74729 -4.47424,2.54243 -6.34994,3.15259 -5.70255,1.85504 -9.84908,0.16379 -10.35843,-4.2249 l -0.20139,-1.73525 -1.88089,2.04951 c -2.59304,2.8255 -5.88226,4.38242 -9.62056,4.55383 -1.68208,0.0771 -3.41005,-0.0768 -4.40678,-0.39267 z M 163.5134,437.41605 c -7.68039,-1.84827 -11.10076,-7.74082 -10.13812,-17.46581 0.94359,-9.53265 5.17223,-15.27099 13.25547,-17.98793 2.69733,-0.90663 3.55979,-1.01395 8.18891,-1.01903 4.46832,-0.005 5.46954,0.10811 7.34046,0.82852 4.80782,1.85128 7.51905,5.23049 8.41386,10.48679 0.78986,4.63985 -0.42947,12.15119 -2.6176,16.125 -1.41023,2.5611 -4.84095,5.8841 -7.34928,7.11855 -4.5575,2.24291 -12.18,3.09637 -17.0937,1.91391 z m 9.02129,-4.40745 c 4.46259,-2.18551 7.67482,-11.4034 7.17939,-20.60217 -0.14388,-2.67137 -0.38199,-3.75344 -1.10752,-5.03296 -2.28479,-4.02939 -7.79371,-2.98427 -10.83486,2.05553 -3.37292,5.58963 -4.72051,17.2381 -2.50779,21.67726 1.33861,2.68553 4.16278,3.42445 7.27078,1.90234 z m 475.80639,4.40745 c -7.68039,-1.84827 -11.10076,-7.74082 -10.13812,-17.46581 0.94359,-9.53265 5.17223,-15.27099 13.25547,-17.98793 2.69733,-0.90663 3.55979,-1.01395 8.18891,-1.01903 4.46832,-0.005 5.46954,0.10811 7.34046,0.82852 4.80782,1.85128 7.51905,5.23049 8.41386,10.48679 0.78986,4.63985 -0.42947,12.15119 -2.6176,16.125 -1.41023,2.5611 -4.84095,5.8841 -7.34928,7.11855 -4.5575,2.24291 -12.18,3.09637 -17.0937,1.91391 z m 9.02129,-4.40745 c 4.46259,-2.18551 7.67482,-11.4034 7.17939,-20.60217 -0.14388,-2.67137 -0.38199,-3.75344 -1.10752,-5.03296 -2.28479,-4.02939 -7.79371,-2.98427 -10.83486,2.05553 -3.37292,5.58963 -4.72051,17.2381 -2.50779,21.67726 1.33861,2.68553 4.16278,3.42445 7.27078,1.90234 z M 53.649213,415.39317 c -3.18618,-24.41196 -2.90847,-23.25235 -5.79523,-24.19941 -0.67968,-0.22299 -1.21854,-0.59986 -1.19746,-0.8375 0.0211,-0.23763 0.0642,-0.93456 0.0958,-1.54872 l 0.0575,-1.11666 h 10.58443 10.58443 l -0.2311,0.83749 c -0.1271,0.46063 -0.23345,1.10316 -0.23633,1.42786 -0.004,0.40333 -0.73822,0.78827 -2.31897,1.21509 -1.27255,0.34361 -2.41262,0.87503 -2.5335,1.18094 -0.17658,0.44692 3.08337,29.63009 3.44649,30.85303 0.0978,0.32925 3.06874,-6.00067 12.16629,-25.92129 l 4.37335,-9.57618 3.35355,-0.008 c 1.84445,-0.005 3.35091,0.11715 3.34768,0.27069 -0.0233,1.11018 4.39694,34.58474 4.59666,34.81019 0.24443,0.27592 14.189097,-29.00839 14.189097,-29.79762 0,-0.44871 -3.0159,-1.94175 -3.92229,-1.94175 -1.39715,0 -1.82666,-0.44697 -1.82666,-1.90093 v -1.44905 h 8.3461 8.3461 l -0.14582,1.48496 c -0.13295,1.35398 -0.2701,1.51746 -1.55502,1.85348 -0.77506,0.20269 -1.74387,0.60619 -2.15291,0.89667 -0.40904,0.29048 -5.75574,10.63696 -11.88155,22.99218 l -11.137847,22.46403 -3.86517,0.10553 -3.86516,0.10553 -0.21962,-1.4083 c -0.12079,-0.77456 -1.11634,-7.77325 -2.21233,-15.55264 -1.09599,-7.77939 -2.10144,-14.26488 -2.23432,-14.41219 -0.13289,-0.14732 -3.6876,6.84379 -7.89936,15.5358 l -7.65776,15.80365 -3.85242,0.004 -3.85242,0.004 z M 220.99401,436.3586 c -2.42459,-2.19048 -2.44093,-3.98325 -0.16086,-17.6457 0.62032,-3.71705 1.12786,-7.61972 1.12786,-8.67259 0,-4.00377 -2.16213,-5.54628 -5.20995,-3.71691 -2.33023,1.39867 -5.67142,7.08651 -7.20286,12.26171 -0.46036,1.5557 -3.30098,17.41002 -3.30098,18.42372 0,0.103 -2.41455,0.18726 -5.36568,0.18726 -3.34494,0 -5.36568,-0.1411 -5.36568,-0.37466 0,-0.20607 0.94857,-6.1587 2.10795,-13.22808 1.15937,-7.06938 2.10794,-13.60319 2.10794,-14.51959 0,-1.48035 -0.13892,-1.74844 -1.2456,-2.40376 -0.68509,-0.40567 -1.61521,-0.7382 -2.06694,-0.73897 -0.91459,-0.002 -1.28661,-0.65164 -1.28661,-2.24828 0,-1.22372 -0.56675,-1.06184 7.80597,-2.22968 l 5.31477,-0.74132 1.29652,0.77821 c 1.28692,0.77244 1.29652,0.7989 1.29652,3.57292 v 2.79471 l 1.49183,-1.83293 c 5.51892,-6.78078 16.36602,-7.11655 19.61071,-0.60704 1.23227,2.47217 1.13246,5.3818 -0.53704,15.65607 -0.77129,4.74662 -1.40235,9.0633 -1.40235,9.59264 0,1.42706 1.37449,1.92076 3.24,1.16376 1.93097,-0.78356 1.98557,-0.77095 2.46686,0.5699 0.50944,1.41928 0.41751,1.57329 -1.63722,2.74274 -2.80046,1.59389 -5.86105,2.42558 -8.92606,2.42558 -2.65147,0 -2.90016,-0.0723 -4.1591,-1.20971 z m 76.08654,-0.0475 c 0,-1.43633 0.34589,-1.77162 2.50966,-2.43274 3.28003,-1.00218 2.85665,0.40975 6.40754,-21.36887 l 3.20573,-19.66161 -0.96856,-0.73992 c -0.53271,-0.40696 -1.67657,-0.92382 -2.5419,-1.1486 -1.53793,-0.39948 -1.5683,-0.43875 -1.34978,-1.74553 l 0.22356,-1.33686 9.38363,-0.11156 c 12.92962,-0.15372 18.40228,0.52588 23.61824,2.93294 6.60514,3.04814 9.50721,8.24529 9.44037,16.90626 -0.0935,12.12337 -5.34502,21.68298 -14.32361,26.07425 -6.53523,3.19625 -10.9885,3.88426 -25.16096,3.88724 l -10.44392,0.002 z m 26.66923,-5.03065 c 4.8602,-2.20883 7.93358,-6.52718 10.01452,-14.07125 0.90172,-3.269 1.00974,-4.34692 1.03711,-10.34903 0.0301,-6.61318 0.0166,-6.72745 -1.04301,-8.82313 -1.88844,-3.73478 -4.90373,-5.47582 -10.02044,-5.78584 l -3.10827,-0.18833 -3.02285,18.37913 c -1.66257,10.10852 -3.02885,18.91517 -3.03618,19.57033 -0.008,0.67248 0.31213,1.54258 0.73405,1.99812 0.67167,0.7252 1.013,0.78552 3.37038,0.59557 1.75414,-0.14134 3.43514,-0.58044 5.07469,-1.32557 z m 154.68692,5.55758 c -2.7723,-1.69335 -2.95093,-4.34466 -1.0606,-15.74161 1.71134,-10.31781 1.84593,-11.72629 1.27025,-13.29314 -1.02124,-2.77953 -3.63567,-2.88119 -6.23892,-0.24257 -3.80665,3.85837 -5.55394,8.47492 -7.27189,19.21321 -0.73691,4.60622 -1.43883,8.83557 -1.5598,9.39855 l -0.21996,1.0236 h -5.33523 c -3.14029,0 -5.33523,-0.1465 -5.33523,-0.3561 0,-0.19585 0.95981,-6.01644 2.13292,-12.93463 2.33271,-13.75682 2.44476,-15.85475 0.93042,-17.42025 -2.39998,-2.48105 -5.92641,0.0867 -9.20528,6.70281 -1.84941,3.73175 -2.68213,6.96793 -4.23818,16.47072 l -1.23424,7.53745 h -5.30744 c -4.79982,0 -5.30729,-0.0623 -5.30583,-0.65138 8.9e-4,-0.35826 0.94947,-6.40867 2.10795,-13.44535 1.15848,-7.03669 2.10632,-13.35977 2.10632,-14.0513 0,-1.45986 -1.01267,-2.62053 -2.57727,-2.95393 -0.58505,-0.12467 -1.25997,-0.28396 -1.49983,-0.35399 -0.33532,-0.0979 -0.97835,-3.16048 -0.66358,-3.16048 0.0387,0 3.0398,-0.41951 6.66913,-0.93226 l 6.59878,-0.93226 1.2937,0.77651 c 1.27337,0.76431 1.2937,0.81814 1.2937,3.42599 v 2.64948 l 1.9328,-2.10606 c 3.63382,-3.95958 9.03337,-5.59468 13.91957,-4.21515 2.64432,0.74657 4.96298,2.81069 5.64662,5.02673 l 0.46347,1.50233 2.19957,-2.33128 c 1.40055,-1.48442 3.01528,-2.7271 4.4451,-3.42091 1.97256,-0.95717 2.66487,-1.09136 5.69491,-1.10387 3.80632,-0.0157 5.11185,0.43131 7.38831,2.52977 1.39829,1.28896 2.38489,3.94252 2.38489,6.41441 0,0.86076 -0.69164,5.88547 -1.53698,11.16602 -0.84535,5.28056 -1.44016,9.89729 -1.32182,10.25942 0.32057,0.98093 1.38317,1.14734 3.24739,0.50855 1.85949,-0.63716 2.17399,-0.48911 2.51891,1.18579 0.23579,1.14499 0.19404,1.18235 -3.08336,2.75957 -3.00189,1.44464 -3.64352,1.61197 -6.65149,1.7347 -2.86117,0.11674 -3.50744,0.0269 -4.59778,-0.63909 z m -125.66136,-0.46897 c 0.11559,-0.46639 1.20099,-6.92372 2.41199,-14.34963 l 2.20181,-13.50165 -0.77151,-1.01492 c -0.48663,-0.64015 -1.34672,-1.14151 -2.32923,-1.35776 -1.43869,-0.31665 -1.57643,-0.45651 -1.80262,-1.83026 -0.147,-0.89275 -0.0847,-1.58358 0.15583,-1.72795 0.2204,-0.13229 3.4279,-0.63955 7.12777,-1.12724 6.59918,-0.86987 6.7521,-0.87361 8.04582,-0.19697 1.52448,0.79733 1.54875,0.97389 0.7439,5.41138 -0.75811,4.17978 -0.74554,4.22074 0.60488,1.97116 2.89569,-4.82379 6.65262,-7.52055 10.88554,-7.81376 3.88194,-0.26889 6.15932,1.43836 6.55946,4.91733 0.1788,1.55451 0.0376,2.18814 -0.86969,3.90264 -1.1534,2.17958 -3.06194,3.72258 -4.60446,3.72258 -0.50421,0 -1.59622,-0.33665 -2.42668,-0.74811 -1.48975,-0.73812 -1.50679,-0.77038 -1.27479,-2.41424 0.38411,-2.72161 -1.06083,-3.55901 -3.57355,-2.07102 -2.19339,1.29889 -6.21466,7.97153 -7.41593,12.30555 -0.25535,0.92124 -1.01519,5.02496 -1.68854,9.11938 l -1.22427,7.44439 -5.48295,0.10354 -5.48295,0.10354 z m 252.18705,0 c 0.11559,-0.46639 1.20098,-6.92372 2.41198,-14.34963 l 2.20182,-13.50165 -0.77152,-1.01492 c -0.48663,-0.64015 -1.34671,-1.14151 -2.32923,-1.35776 -1.43869,-0.31665 -1.57643,-0.45651 -1.80262,-1.83026 -0.14699,-0.89275 -0.0847,-1.58358 0.15583,-1.72795 0.22041,-0.13229 3.4279,-0.63955 7.12777,-1.12724 6.59919,-0.86987 6.7521,-0.87361 8.04583,-0.19697 1.52447,0.79733 1.54874,0.97389 0.74389,5.41138 -0.7581,4.17978 -0.74553,4.22074 0.60488,1.97116 2.8957,-4.82379 6.65263,-7.52055 10.88554,-7.81376 3.88195,-0.26889 6.15933,1.43836 6.55947,4.91733 0.1788,1.55451 0.0376,2.18814 -0.86969,3.90264 -1.1534,2.17958 -3.06195,3.72258 -4.60446,3.72258 -0.50422,0 -1.59622,-0.33665 -2.42669,-0.74811 -1.48975,-0.73812 -1.50679,-0.77038 -1.27478,-2.41424 0.3841,-2.72161 -1.06083,-3.55901 -3.57356,-2.07102 -2.19338,1.29889 -6.21465,7.97153 -7.41593,12.30555 -0.25534,0.92124 -1.01518,5.02496 -1.68853,9.11938 l -1.22427,7.44439 -5.48295,0.10354 -5.48296,0.10354 z M 237.0355,350.13381 c -1.64077,-0.40923 -4.3072,-1.97105 -5.56707,-3.26083 -2.70081,-2.76493 -3.92808,-7.95118 -3.35675,-14.1851 0.58183,-6.34843 2.46577,-10.74655 6.126,-14.30132 5.03326,-4.88822 13.22583,-6.71001 20.58593,-4.57768 1.87581,0.54345 2.22034,0.53391 5.16297,-0.14293 2.79952,-0.64392 3.27244,-0.66526 4.21809,-0.19033 0.58578,0.29419 1.06505,0.77361 1.06505,1.06537 0,0.29177 -0.69706,4.68431 -1.54902,9.76121 -2.69626,16.06717 -3.05988,18.75358 -2.64119,19.51337 0.46676,0.84702 2.38104,0.93024 3.88379,0.16884 1.00717,-0.5103 1.04655,-0.49041 1.46449,0.73946 0.23622,0.69512 0.31842,1.43838 0.18268,1.65168 -0.13574,0.21331 -1.23494,0.87227 -2.44268,1.46436 -6.4025,3.13885 -11.60559,2.91815 -13.46206,-0.57103 -0.31619,-0.59427 -0.62118,-1.15336 -0.67775,-1.24242 -0.0566,-0.089 -0.74644,0.44705 -1.53305,1.19135 -0.78661,0.7443 -2.28976,1.7217 -3.34034,2.172 -2.06707,0.88601 -6.07662,1.25342 -8.11909,0.744 z m 8.57519,-4.86196 c 1.58386,-0.93791 3.32667,-3.88851 4.51533,-7.64451 1.15926,-3.66309 4.12048,-19.97387 3.70034,-20.38191 -0.57013,-0.55369 -4.07258,-0.7304 -5.75289,-0.29024 -2.27502,0.59594 -5.12684,3.2538 -6.56285,6.1165 -1.76743,3.52336 -2.41077,6.80546 -2.45183,12.50844 -0.041,5.70072 0.41307,7.75807 2.06696,9.36431 1.2969,1.25953 2.73372,1.36442 4.48494,0.32741 z m 33.8163,4.71106 c -3.26467,-0.89619 -5.50479,-2.99679 -6.9182,-6.48731 -1.20684,-2.98039 -1.21042,-10.74089 -0.007,-15.11493 2.06229,-7.49559 6.1249,-12.17619 12.53689,-14.44394 3.30844,-1.17011 9.95091,-1.20818 12.48839,-0.0716 l 1.78797,0.80088 0.193,-0.80259 c 0.10615,-0.44142 0.4925,-2.61217 0.85856,-4.82389 0.65386,-3.95058 0.65219,-4.03895 -0.0948,-5.02496 -0.4544,-0.59977 -1.48088,-1.21732 -2.55072,-1.53457 -1.5293,-0.4535 -1.78945,-0.67056 -1.78444,-1.48888 0.003,-0.52689 0.13624,-1.15711 0.29559,-1.4005 0.1795,-0.27418 3.01577,-0.68956 7.45568,-1.09191 6.93123,-0.62811 7.19147,-0.62696 7.94457,0.0349 0.42823,0.37638 0.7779,1.11898 0.77705,1.65024 -8.5e-4,0.53125 -1.46683,9.98511 -3.25773,21.00858 -1.79091,11.02346 -3.25619,20.67601 -3.25619,21.45011 0,2.12628 0.76719,2.54973 3.13792,1.73199 1.05353,-0.3634 1.96016,-0.60645 2.01474,-0.54012 0.0546,0.0663 0.28683,0.66082 0.51613,1.32106 0.38187,1.0996 0.33029,1.25958 -0.61382,1.90414 -4.18831,2.8594 -10.6816,4.0288 -13.47433,2.42662 -1.07359,-0.6159 -2.69527,-3.10813 -2.69527,-4.14212 0,-0.2327 -0.82942,0.38243 -1.84315,1.36696 -3.134,3.04369 -9.08875,4.4857 -13.51083,3.27179 z m 10.94646,-4.83237 c 1.9237,-1.05341 3.61767,-3.47552 4.72796,-6.76024 0.76404,-2.26038 3.50457,-17.41288 3.51005,-19.40725 0.002,-0.90938 -1.08665,-1.47555 -3.52035,-1.82999 -7.14544,-1.04065 -12.24864,6.96128 -12.34522,19.35762 -0.0427,5.48119 0.36163,7.10765 2.12523,8.54887 1.46258,1.19522 3.42651,1.2277 5.50233,0.091 z m 55.4665,4.7936 c -3.81536,-1.20893 -5.92457,-4.10634 -5.93851,-8.1577 -0.004,-1.2639 0.65273,-6.44618 1.46017,-11.51618 l 1.46808,-9.21817 -0.77379,-1.01787 c -0.48967,-0.64414 -1.34741,-1.14409 -2.33609,-1.36165 -1.47173,-0.32385 -1.57205,-0.43173 -1.73053,-1.86109 -0.0925,-0.83453 -0.0647,-1.6201 0.0619,-1.74573 0.12658,-0.12562 3.28449,-0.61473 7.01758,-1.08691 6.51221,-0.8237 6.847,-0.83243 8.25617,-0.21529 l 1.46873,0.64322 -1.62134,9.74919 c -2.35108,14.13711 -2.69792,17.59008 -1.94067,19.32059 1.52792,3.49169 5.57325,1.74679 9.01861,-3.89006 2.07424,-3.3936 3.00195,-6.6494 4.72112,-16.56877 l 1.62891,-9.39855 h 5.41487 5.41486 l -1.05086,6.23468 c -3.37501,20.02366 -3.84583,23.3263 -3.44666,24.17713 0.47134,1.00467 1.71758,1.11464 3.66698,0.3236 l 1.30866,-0.53104 0.44191,1.30042 c 0.24305,0.71523 0.38161,1.35291 0.3079,1.41707 -0.85848,0.74729 -4.47424,2.54243 -6.34995,3.1526 -5.70254,1.85503 -9.84908,0.16378 -10.35842,-4.2249 l -0.20139,-1.73526 -1.8809,2.04951 c -2.59304,2.8255 -5.88225,4.38243 -9.62056,4.55384 -1.68207,0.0771 -3.41004,-0.0768 -4.40678,-0.39268 z m 135.78173,0.15097 c -10.65809,-1.87908 -15.40612,-9.83981 -14.06703,-23.58531 0.57724,-5.92533 1.59102,-9.68832 3.77367,-14.00729 1.44068,-2.8508 2.3513,-4.07953 4.69876,-6.34026 5.1768,-4.98552 10.25933,-6.8385 18.81717,-6.86034 5.88404,-0.015 9.33903,0.76317 12.14125,2.73459 2.67011,1.87848 3.3809,3.1856 3.3809,6.21731 0,2.26986 -0.146,2.8404 -1.04775,4.09442 -1.58803,2.20839 -3.34595,3.20648 -5.61738,3.1894 -2.06686,-0.0155 -3.63644,-0.63463 -4.81462,-1.899 -0.66566,-0.71435 -0.6923,-0.9303 -0.24579,-1.99226 1.82827,-4.34829 1.82554,-5.62707 -0.0152,-7.13133 -2.20106,-1.7987 -7.03238,-1.54756 -10.42489,0.54192 -4.95153,3.04968 -8.22678,11.41755 -8.90172,22.74282 -0.49989,8.38795 1.19033,13.87124 4.97542,16.14089 1.70456,1.02211 2.1929,1.13106 5.06953,1.13106 4.59351,0 4.83359,-0.2898 5.93987,-7.17002 0.59594,-3.7063 0.7322,-5.42684 0.45138,-5.69957 -0.22124,-0.21486 -1.46079,-0.58603 -2.75456,-0.82481 -2.56904,-0.47416 -2.58804,-0.50424 -2.10632,-3.33465 l 0.23756,-1.39582 h 8.69733 8.69734 l -1.54661,9.08813 -1.5466,9.08812 -2.31428,1.28172 c -2.68715,1.48823 -5.58557,2.6194 -8.82974,3.446 -2.76114,0.70352 -9.98197,1.01426 -12.64768,0.54428 z m 118.19701,-0.19451 c -2.13724,-0.50386 -5.68906,-1.99751 -6.94101,-2.91891 -0.61367,-0.45165 -0.57394,-0.78686 0.605,-5.10498 l 1.26179,-4.62159 1.27789,0.12746 c 2.65647,0.26497 2.72933,0.36015 2.80698,3.66669 0.0819,3.48562 0.51169,4.18521 3.17935,5.17464 5.25928,1.95066 10.79665,-2.79378 8.42577,-7.21923 -0.9028,-1.68516 -2.22615,-2.61204 -5.91615,-4.14374 -1.94409,-0.80697 -4.25833,-1.98405 -5.14275,-2.61572 -1.93442,-1.38159 -3.6233,-3.72063 -3.96547,-5.49204 -0.38568,-1.99658 0.0624,-5.39574 0.92858,-7.04472 2.82029,-5.36894 11.11676,-7.97797 20.06205,-6.30901 2.38548,0.44506 6.69077,1.81571 7.17308,2.28364 0.0797,0.0773 -0.42174,2.24074 -1.11419,4.80769 l -1.259,4.6672 h -2.23937 -2.23936 v -2.92756 c 0,-2.43953 -0.13851,-3.09857 -0.83087,-3.95341 -2.95537,-3.64888 -9.59196,-2.1547 -10.5236,2.36931 -0.5757,2.79554 1.10525,4.57918 6.37508,6.76455 4.9052,2.03415 7.17927,3.71105 8.55474,6.30826 0.97142,1.83427 1.06761,2.33736 0.92509,4.83876 -0.27469,4.82135 -2.52699,7.90994 -7.35676,10.08836 -3.91782,1.76709 -9.6868,2.28225 -14.04687,1.25435 z m -279.33185,-0.43037 c -3.51383,-1.8083 -3.72366,-4.02019 -1.59693,-16.83324 2.13777,-12.87959 2.10695,-13.40712 -0.83196,-14.24078 -1.90643,-0.54078 -2.18379,-0.84581 -2.19164,-2.41032 -0.007,-1.39432 -0.42588,-1.26786 7.90773,-2.3874 l 6.18892,-0.83142 1.38005,0.82835 c 1.06292,0.63799 1.33732,1.01389 1.19406,1.63576 -0.1023,0.44408 -1.14616,6.87344 -2.31971,14.28747 -2.28524,14.43741 -2.29796,14.99475 -0.34203,14.99475 0.52634,0 1.56165,-0.24537 2.3007,-0.54526 1.30943,-0.53135 1.35311,-0.52124 1.71237,0.39645 0.59886,1.52975 0.4451,1.95022 -1.06906,2.92337 -3.58891,2.30659 -9.91554,3.42611 -12.3325,2.18227 z m 198.53022,0 c -3.51382,-1.8083 -3.72365,-4.02019 -1.59692,-16.83324 2.13777,-12.87959 2.10695,-13.40712 -0.83197,-14.24078 -1.90642,-0.54078 -2.18378,-0.84581 -2.19164,-2.41032 -0.007,-1.39432 -0.42587,-1.26786 7.90774,-2.3874 l 6.18891,-0.83142 1.38006,0.82835 c 1.06292,0.63799 1.33731,1.01389 1.19406,1.63576 -0.1023,0.44408 -1.14617,6.87344 -2.31971,14.28747 -2.28525,14.43741 -2.29796,14.99475 -0.34203,14.99475 0.52634,0 1.56165,-0.24537 2.30069,-0.54526 1.30943,-0.53135 1.35312,-0.52124 1.71238,0.39645 0.59886,1.52975 0.4451,1.95022 -1.06907,2.92337 -3.5889,2.30659 -9.91553,3.42611 -12.3325,2.18227 z m 58.05308,0.35495 c -2.4925,-0.61489 -3.65698,-2.63162 -3.65698,-6.33348 0,-2.20003 1.80599,-14.15744 5.01111,-33.17844 0.42712,-2.53477 0.66839,-5.08709 0.53615,-5.67181 -0.31826,-1.4073 -1.89098,-2.56109 -3.491,-2.56109 -1.08354,0 -1.28889,-0.13389 -1.2845,-0.83749 0.015,-2.40318 -0.18618,-2.32256 7.54499,-3.02316 l 7.11363,-0.64465 0.90823,0.82866 c 0.49953,0.45576 0.90823,1.18445 0.90823,1.61931 0,0.43486 -1.46598,10.03139 -3.25774,21.32562 -1.79175,11.29424 -3.25773,20.93867 -3.25773,21.43207 0,1.40979 0.94457,1.94443 2.61643,1.48092 0.7743,-0.21466 1.69237,-0.50857 2.04015,-0.65312 0.48874,-0.20313 0.73959,0.0529 1.10476,1.12746 0.54158,1.59374 0.4064,1.75619 -2.78461,3.3463 -3.26613,1.62753 -7.52511,2.36606 -10.05112,1.7429 z M 177.5025,348.67896 c 0,-1.41997 0.66317,-2.10134 2.54979,-2.61975 3.35296,-0.92135 2.95177,0.39673 6.48332,-21.30072 l 3.17621,-19.51426 -0.93672,-0.82475 c -0.5152,-0.45361 -1.62385,-1.00443 -2.46366,-1.22406 -1.23745,-0.32361 -1.52694,-0.56724 -1.52694,-1.28507 0,-2.16421 -0.63138,-2.06444 12.97613,-2.05032 14.03764,0.0146 17.05184,0.33231 20.98321,2.21195 4.10424,1.9623 5.75139,4.97811 5.42705,9.9365 -0.22742,3.47657 -1.57921,6.19801 -4.24132,8.5387 -1.94474,1.70993 -7.55749,4.6108 -8.92121,4.6108 -0.48346,0 -0.21187,0.39183 0.92887,1.34013 0.88665,0.73707 1.85472,1.7958 2.15126,2.35273 0.29655,0.55693 1.51616,4.26697 2.71025,8.24453 1.19409,3.97755 2.441,7.52649 2.77091,7.88652 0.32991,0.36003 1.30474,0.84889 2.1663,1.08635 2.10322,0.57969 2.23642,0.73846 1.93382,2.30498 l -0.26102,1.35126 h -5.62508 c -5.07382,0 -5.79181,-0.0821 -7.32639,-0.8375 -0.94415,-0.46477 -2.0126,-1.36455 -2.40077,-2.02176 -0.3847,-0.65135 -1.70057,-4.8765 -2.92417,-9.38923 -1.22359,-4.51274 -2.465,-8.48636 -2.75868,-8.83027 -0.6716,-0.78648 -2.70691,-1.62664 -3.94057,-1.62664 -1.10826,0 -0.94606,-0.59768 -2.55794,9.42547 -0.6526,4.05805 -1.09505,7.60983 -0.98322,7.89285 0.22959,0.58107 2.97695,2.0371 3.84378,2.0371 0.84188,0 1.06291,0.57808 0.78035,2.04088 l -0.25288,1.3091 H 188.38284 177.5025 Z m 28.08334,-27.24372 c 7.20879,-2.61944 10.04879,-13.25005 4.3122,-16.1413 -2.67341,-1.3474 -7.85564,-1.27468 -8.62476,0.12102 -0.3183,0.57762 -3.07458,15.71024 -3.07458,16.88018 0,0.57114 5.07451,-0.0196 7.38714,-0.8599 z m 225.70951,27.55898 c -2.7723,-1.69336 -2.95093,-4.34467 -1.0606,-15.74161 1.71134,-10.31782 1.84593,-11.7263 1.27025,-13.29314 -1.02123,-2.77954 -3.63567,-2.88119 -6.23892,-0.24258 -3.80665,3.85837 -5.55394,8.47492 -7.27188,19.21322 -0.73692,4.60621 -1.43883,8.83556 -1.55981,9.39854 l -0.21995,1.02361 h -5.33523 c -3.1403,0 -5.33523,-0.1465 -5.33523,-0.3561 0,-0.19586 0.95981,-6.01644 2.13291,-12.93464 2.33271,-13.75682 2.44476,-15.85475 0.93042,-17.42025 -2.39998,-2.48105 -5.92641,0.0867 -9.20527,6.70282 -1.84942,3.73174 -2.68214,6.96793 -4.23819,16.47072 l -1.23424,7.53745 h -5.30744 c -4.79982,0 -5.30729,-0.0623 -5.30583,-0.65139 8.9e-4,-0.35826 0.94947,-6.40867 2.10795,-13.44535 1.15848,-7.03668 2.10633,-13.35976 2.10633,-14.05129 0,-1.45987 -1.01268,-2.62054 -2.57728,-2.95394 -0.58505,-0.12466 -1.25997,-0.28396 -1.49983,-0.35398 -0.33531,-0.0979 -0.97835,-3.16048 -0.66358,-3.16048 0.0387,0 3.03981,-0.41952 6.66913,-0.93226 l 6.59878,-0.93227 1.2937,0.77651 c 1.27338,0.76432 1.2937,0.81814 1.2937,3.426 v 2.64948 l 1.9328,-2.10607 c 3.63382,-3.95958 9.03337,-5.59468 13.91958,-4.21515 2.64431,0.74657 4.96298,2.8107 5.64662,5.02674 l 0.46346,1.50232 2.19957,-2.33128 c 1.40055,-1.48441 3.01529,-2.7271 4.44511,-3.42091 1.97255,-0.95716 2.66486,-1.09136 5.6949,-1.10386 3.80632,-0.0157 5.11186,0.4313 7.38831,2.52976 1.3983,1.28896 2.3849,3.94252 2.3849,6.41441 0,0.86076 -0.69165,5.88547 -1.53699,11.16603 -0.84534,5.28055 -1.44016,9.89729 -1.32182,10.25941 0.32058,0.98094 1.38317,1.14734 3.24739,0.50856 1.85949,-0.63717 2.17399,-0.48911 2.51891,1.18579 0.23579,1.14498 0.19404,1.18235 -3.08335,2.75957 -3.00189,1.44463 -3.64353,1.61197 -6.6515,1.7347 -2.86117,0.11673 -3.50744,0.0269 -4.59778,-0.63909 z m 105.82949,-0.46898 c 0.11559,-0.46638 1.20099,-6.92372 2.41198,-14.34962 l 2.20182,-13.50166 -0.77152,-1.01491 c -0.48663,-0.64015 -1.34671,-1.14151 -2.32923,-1.35777 -1.43868,-0.31665 -1.57643,-0.4565 -1.80262,-1.83026 -0.14699,-0.89275 -0.0847,-1.58357 0.15583,-1.72794 0.22041,-0.13229 3.4279,-0.63955 7.12777,-1.12725 6.59919,-0.86986 6.75211,-0.8736 8.04583,-0.19696 1.52447,0.79732 1.54874,0.97389 0.74389,5.41138 -0.7581,4.17978 -0.74553,4.22074 0.60488,1.97115 2.8957,-4.82378 6.65263,-7.52055 10.88555,-7.81375 3.88194,-0.2689 6.15932,1.43835 6.55946,4.91732 0.1788,1.55452 0.0376,2.18814 -0.86969,3.90265 -1.1534,2.17957 -3.06194,3.72258 -4.60446,3.72258 -0.50421,0 -1.59622,-0.33665 -2.42668,-0.74812 -1.48975,-0.73811 -1.50679,-0.77038 -1.27479,-2.41423 0.3841,-2.72162 -1.06083,-3.55901 -3.57355,-2.07102 -2.19339,1.29888 -6.21466,7.97153 -7.41594,12.30554 -0.25534,0.92125 -1.01518,5.02497 -1.68853,9.11938 l -1.22427,7.4444 -5.48295,0.10353 -5.48295,0.10354 z M 325.44201,307.75613 c -0.9724,-0.47177 -1.48895,-1.06522 -1.87773,-2.15728 -1.45021,-4.07361 2.04109,-8.02748 6.64347,-7.52367 2.21032,0.24196 3.5757,1.20651 4.09619,2.8937 1.51188,4.90081 -4.01901,9.13685 -8.86193,6.78725 z m 198.53023,0 c -0.97241,-0.47177 -1.48896,-1.06522 -1.87773,-2.15728 -1.45021,-4.07361 2.04108,-8.02748 6.64347,-7.52367 2.21032,0.24196 3.57569,1.20651 4.09619,2.8937 1.51188,4.90081 -4.01901,9.13685 -8.86193,6.78725 z"
       id="path1" /></g></svg>
