<svg viewBox="0 0 800 800" xmlns="http://www.w3.org/2000/svg"><path d="M586.3701812399819,543.7532261953728 L586.660324933501,40.707063906004464 M586.660324933501,40.707063906004464 L625.9443467749447,69.5227662237993 M625.9443467749447,69.5227662237993 L652.1170664143868,102.916748212414 M652.1170664143868,102.916748212414 L663.6506563212814,138.95267181775347 M663.6506563212814,138.95267181775347 L659.8652985883555,175.53836976106834 M659.8652985883555,175.53836976106834 L640.97084151998,210.5468916751245 M640.97084151998,210.5468916751245 L608.0569607257241,241.94035392033362 M608.0569607257241,241.94035392033362 L563.0317268950306,267.88908398498097 M563.0317268950306,267.88908398498097 L508.5118376296815,286.8791503710994 M508.5118376296815,286.8791503710994 L447.6705272495184,297.80170990731705 M447.6705272495184,297.80170990731705 L384.0520566830541,300.01863142275323 M384.0520566830541,300.01863142275323 L321.36389287081306,293.40037070151266 M321.36389287081306,293.40037070151266 L263.2587711220674,278.3336426276422 M263.2587711220674,278.3336426276422 L213.12032402608892,255.69848579000737 M213.12032402608892,255.69848579000737 L173.86487119286133,226.81607201087525 M173.86487119286133,226.81607201087525 L147.77131358819435,193.37066138192498 M147.77131358819435,193.37066138192498 L136.34934367871864,157.3103736099314 M136.34934367871864,157.3103736099314 L140.25320865141884,120.73295749674787 M140.25320865141884,120.73295749674787 L159.24591157054232,85.76346614141346 M159.24591157054232,85.76346614141346 L192.21526994673872,54.43084177196977 M192.21526994673872,54.43084177196977 L237.24050382910792,28.550819704079004 M237.24050382910792,28.550819704079004 L291.70491557122665,9.621591254962368 M291.70491557122665,9.621591254962368 L352.44798006399293,-1.2619376504162574 M352.44798006399293,-1.2619376504162574 L415.9479432903348,-3.4705773296441293 M415.9479432903348,-3.4705773296441293 L478.5244870277975,3.12331917744217 M478.5244870277975,3.12331917744217 L536.5504467542256,18.138618538211233 M536.5504467542256,18.138618538211233 L586.660324933501,40.707063906004464 M586.3701812399819,543.7532261953728 L536.3382295559312,521.1494030398476 M536.3382295559312,521.1494030398476 L478.40247103752597,506.1105605719912 M478.40247103752597,506.1105605719912 L415.92318206387034,499.5063238437175 M415.92318206387034,499.5063238437175 L352.5219047004102,501.71842709578596 M352.5219047004102,501.71842709578596 L291.87325324637305,512.6190220938926 M291.87325324637305,512.6190220938926 L237.49352087034046,531.5779273631525 M237.49352087034046,531.5779273631525 L192.53832618030208,557.498512327075 M192.53832618030208,557.498512327075 L159.62029644830284,588.880228347814 M159.62029644830284,588.880228347814 L140.65721393941408,623.904487124698 M140.65721393941408,623.904487124698 L136.75951365378023,660.5391635828295 M136.75951365378023,660.5391635828295 L148.16380279414273,696.6558768096136 M148.16380279414273,696.6558768096136 L174.2168320007329,730.1535987591736 M174.2168320007329,730.1535987591736 L213.41124307310756,759.081169542696 M213.41124307310756,759.081169542696 L263.4716748620177,781.7517046541279 M263.4716748620177,781.7517046541279 L321.4863493123556,796.8419762097416 M321.4863493123556,796.8419762097416 L384.07691136815384,803.4705773296441 M384.07691136815384,803.4705773296441 L447.596327668673,801.2501921810418 M447.596327668673,801.2501921810418 L508.3429195937734,790.3105662677764 M508.3429195937734,790.3105662677764 L562.7779570305536,771.2908226182806 M562.7779570305536,771.2908226182806 L607.733151669237,745.3015291569442 M607.733151669237,745.3015291569442 L640.595876282143,713.858974817054 M640.595876282143,713.858974817054 L659.4610183563898,678.795685196956 M659.4610183563898,678.795685196956 L663.2405798046899,642.1527268483233 M663.2405798046899,642.1527268483233 L651.7250176590643,606.0603779657903 M651.7250176590643,606.0603779657903 L625.5930725081611,572.6140850314048 M625.5930725081611,572.6140850314048 L586.3701812399819,543.7532261953728 M528.9371627957156,576.9121948545427 L494.3286899043946,561.2707844692898 M494.3286899043946,561.2707844692898 L454.248055888779,550.8634462534093 M454.248055888779,550.8634462534093 L411.0213581555166,546.292923108883 M411.0213581555166,546.292923108883 L367.156234059299,547.8238458107021 M367.156234059299,547.8238458107021 L325.19715134137266,555.3675722180736 M325.19715134137266,555.3675722180736 L287.5786020657713,568.4872880407776 M287.5786020657713,568.4872880407776 L256.48458727074967,586.4230057355378 M256.48458727074967,586.4230057355378 L233.7221702505998,608.1351760518522 M233.7221702505998,608.1351760518522 L220.6164789454354,632.3644487512087 M220.6164789454354,632.3644487512087 L217.93315832620573,657.7043140155803 M217.93315832620573,657.7043140155803 L225.83299843134222,682.6824464356948 M225.83299843134222,682.6824464356948 L243.8614376154137,705.8462118831084 M243.8614376154137,705.8462118831084 L270.9739511035821,725.8473245660173 M270.9739511035821,725.8473245660173 L305.5960489662987,741.5206501166458 M305.5960489662987,741.5206501166458 L345.71443656979585,751.9525921325959 M345.71443656979585,751.9525921325959 L388.99436764407517,756.5347712615849 M388.99436764407517,756.5347712615849 L432.91600970512206,754.9998864717654 M432.91600970512206,754.9998864717654 L474.92194740738427,747.4374875923659 M474.92194740738427,747.4374875923659 L512.5669547887717,734.2886665406488 M512.5669547887717,734.2886665406488 L543.6609695720398,716.3200785252916 M543.6609695720398,716.3200785252916 L566.39692847305,694.5788029886035 M566.39692847305,694.5788029886035 L579.4557648022143,670.3308578262391 M579.4557648022143,670.3308578262391 L582.0825674794387,644.98703048292 M582.0825674794387,644.98703048292 L574.1294940508807,620.0205540356312 M574.1294940508807,620.0205540356312 L556.0633012760942,596.8813923664919 M556.0633012760942,596.8813923664919 L528.9371627957156,576.9121948545427 M529.1379280592411,73.81415247518385 L556.3063390959725,93.75211666002087 M556.3063390959725,93.75211666002087 L574.4007080416012,116.85509654756129 M574.4007080416012,116.85509654756129 L582.366213705394,141.78254548263226 M582.366213705394,141.78254548263226 L579.7353626268956,167.08676772153777 M579.7353626268956,167.08676772153777 L566.6562174898197,191.29683191037003 M566.6562174898197,191.29683191037003 L543.8848571185608,213.00415210979287 M543.8848571185608,213.00415210979287 L512.7423985308682,230.94468381163432 M512.7423985308682,230.94468381163432 L475.03872036296946,244.07297811799265 M475.03872036296946,244.07297811799265 L432.96730169173094,251.62357277566232 M432.96730169173094,251.62357277566232 L388.97718647889883,253.15606188342832 M388.97718647889883,253.15606188342832 L345.6297845935091,248.58103485524384 M345.6297845935091,248.58103485524384 L305.44886389988636,238.16537705945848 M305.44886389988636,238.16537705945848 L270.7728149089434,222.51652144897378 M270.7728149089434,222.51652144897378 L243.6180713524426,202.54664232578972 M243.6180713524426,202.54664232578972 L225.56157372780655,179.4190588393117 M225.56157372780655,179.4190588393117 L217.64946738946466,154.4799540163795 M217.64946738946466,154.4799540163795 L220.33701265469864,129.1796938275403 M220.33701265469864,129.1796938275403 L233.46315887966838,104.98830196560868 M233.46315887966838,104.98830196560868 L256.2610598767194,83.3100867744194 M256.2610598767194,83.3100867744194 L287.40351847623907,65.40242515361155 M287.40351847623907,65.40242515361155 L325.08065603178255,52.303235864161024 M325.08065603178255,52.303235864161024 L367.10507360673944,44.77131354245171 M367.10507360673944,44.77131354245171 L411.0384946098695,43.24278649381495 M411.0384946098695,43.24278649381495 L454.332497152103,47.806157622472824 M454.332497152103,47.806157622472824 L494.47554652758413,58.19721179748353 M494.47554652758413,58.19721179748353 L529.1379280592411,73.81415247518385 M528.9371627957156,576.9121948545427 L529.1379280592411,73.81415247518385" stroke="black"  stroke-width="4"  fill="red"/></svg>