<?xml version="1.0" encoding="UTF-8" standalone="no"?>
<!-- Created with Inkscape (http://www.inkscape.org/) -->

<svg
   width="210mm"
   height="297mm"
   viewBox="0 0 793.70081 1122.5197"
   version="1.1"
   id="svg5"
   inkscape:version="1.3.2 (091e20e, 2023-11-25, custom)"
   xml:space="preserve"
   sodipodi:docname="RadiumGirlsTxt.svg"
   xmlns:inkscape="http://www.inkscape.org/namespaces/inkscape"
   xmlns:sodipodi="http://sodipodi.sourceforge.net/DTD/sodipodi-0.dtd"
   xmlns="http://www.w3.org/2000/svg"
   xmlns:svg="http://www.w3.org/2000/svg"><sodipodi:namedview
     id="namedview7"
     pagecolor="#ffffff"
     bordercolor="#666666"
     borderopacity="1.0"
     inkscape:showpageshadow="2"
     inkscape:pageopacity="0.0"
     inkscape:pagecheckerboard="0"
     inkscape:deskcolor="#d1d1d1"
     inkscape:document-units="mm"
     showgrid="false"
     inkscape:zoom="0.72426347"
     inkscape:cx="430.0921"
     inkscape:cy="670.33617"
     inkscape:window-width="1920"
     inkscape:window-height="1009"
     inkscape:window-x="-8"
     inkscape:window-y="-8"
     inkscape:window-maximized="1"
     inkscape:current-layer="layer1" /><defs
     id="defs2" /><g
     inkscape:label="Layer 1"
     inkscape:groupmode="layer"
     id="layer1"><path
       style="fill:#000000;stroke-width:0.458344"
       d="m 256.64729,525.90891 c -3.22211,-0.55527 -5.0345,-2.15984 -5.54079,-4.90542 -0.39424,-2.13791 0.21633,-4.89175 1.56363,-7.0524 1.98518,-3.18365 5.8278,-6.00918 10.54283,-7.75231 1.6246,-0.6006 4.7386,-1.48005 5.24065,-1.48005 0.18797,0 0.46357,0.46236 0.67673,1.13535 0.10055,0.31743 -0.0862,0.42733 -1.9401,1.14154 -3.70048,1.42563 -5.59613,2.66453 -7.17103,4.68664 -0.88234,1.13288 -1.81261,2.70172 -1.66936,2.81524 0.0423,0.0335 0.59135,-0.0766 1.22009,-0.24484 4.56327,-1.22072 9.09027,0.26616 10.04704,3.29992 0.32492,1.03025 0.13596,2.91699 -0.40464,4.04032 -0.60676,1.26082 -2.67454,2.91083 -4.51812,3.60528 -2.38348,0.89783 -5.41011,1.16515 -8.04693,0.71073 z m 4.65065,-2.13701 c 0.89926,-0.30115 1.67902,-0.97481 2.25464,-1.94784 0.43266,-0.73139 0.502,-1.0588 0.50591,-2.38859 0.005,-1.79566 -0.33973,-2.53882 -1.45407,-3.13226 -0.90627,-0.48262 -2.20226,-0.40296 -3.94258,0.24236 -1.58426,0.58745 -1.59717,0.61574 -1.59881,3.50631 -0.001,1.88108 0.0503,2.23639 0.40108,2.77384 0.67522,1.03459 2.34173,1.44588 3.83383,0.94618 z m -49.66045,2.0022 c -4.25273,-0.9086 -6.34139,-4.62169 -5.646,-10.03708 0.31248,-2.43354 0.86746,-4.09311 1.96798,-5.88495 1.62653,-2.6483 4.22116,-4.38419 7.33436,-4.90693 1.8407,-0.30907 3.29366,-0.27988 4.83406,0.0971 1.12211,0.27463 1.50047,0.46683 2.5028,1.27135 2.04598,1.64219 2.81908,3.43537 2.82509,6.55275 0.006,3.23082 -0.78337,6.12967 -2.29188,8.41422 -0.92433,1.39984 -3.21128,3.24414 -4.73999,3.82254 -2.16686,0.81984 -4.84864,1.08499 -6.78642,0.67098 z m 3.86153,-2.05694 c 1.52143,-0.9762 2.96959,-3.57411 3.87563,-6.95264 0.47084,-1.7557 0.52444,-2.27772 0.5327,-5.18825 0.009,-3.22335 0.007,-3.23955 -0.52438,-4.09705 -0.92762,-1.4967 -2.15686,-1.6232 -3.80857,-0.39195 -3.36742,2.51021 -5.62384,12.87808 -3.51544,16.15286 0.71734,1.11418 2.13966,1.31142 3.44006,0.47703 z m -33.20274,1.76682 c 0.0386,-1.19387 0.21239,-1.39406 2.71148,-3.12298 8.29358,-5.73766 11.84746,-9.65533 11.85905,-13.07298 0.007,-1.99538 -0.83074,-2.84192 -2.65077,-2.67936 -1.06331,0.095 -1.67879,0.41516 -2.3533,1.22429 -0.49769,0.59701 -0.53445,0.75246 -0.53445,2.26009 v 1.61897 l -0.96907,0.39443 c -1.16374,0.47367 -2.89001,0.52011 -3.70007,0.0995 -1.79828,-0.93366 -1.6515,-3.22902 0.31554,-4.93444 1.11652,-0.96802 2.97626,-1.77532 5.03184,-2.18428 1.58355,-0.31504 4.88216,-0.22369 6.32297,0.17512 1.72661,0.47792 3.04151,1.29976 3.69508,2.30952 1.30302,2.01317 0.49902,4.92153 -2.15071,7.77987 -1.19012,1.28381 -4.6581,3.9827 -7.52462,5.85588 l -2.2403,1.46396 5.13128,0.041 c 5.82886,0.0466 5.2874,-0.11919 4.93163,1.5102 -0.10981,0.50292 -0.24275,1.07042 -0.29542,1.26112 l -0.0958,0.34673 h -8.7478 -8.7478 z m 44.72991,0 c 0.0386,-1.19387 0.21239,-1.39406 2.71148,-3.12298 8.29358,-5.73766 11.84745,-9.65533 11.85904,-13.07298 0.007,-1.99538 -0.83073,-2.84192 -2.65077,-2.67936 -1.06331,0.095 -1.67878,0.41516 -2.3533,1.22429 -0.49768,0.59701 -0.53444,0.75246 -0.53444,2.26009 v 1.61897 l -0.96908,0.39443 c -1.16374,0.47367 -2.89001,0.52011 -3.70006,0.0995 -1.79828,-0.93366 -1.65151,-3.22902 0.31553,-4.93444 1.11652,-0.96802 2.97626,-1.77532 5.03185,-2.18428 1.58355,-0.31504 4.88216,-0.22369 6.32296,0.17512 1.72662,0.47792 3.04151,1.29976 3.69508,2.30952 1.30302,2.01317 0.49902,4.92153 -2.15071,7.77987 -1.19012,1.28381 -4.6581,3.9827 -7.52461,5.85588 l -2.2403,1.46396 5.13128,0.041 c 5.82885,0.0466 5.28739,-0.11919 4.93163,1.5102 -0.10981,0.50292 -0.24275,1.07042 -0.29543,1.26112 l -0.0958,0.34673 h -8.7478 -8.74779 z M 85.726824,496.02557 c -2.112879,-0.74411 -2.139732,-2.32908 -0.08535,-5.03761 0.528277,-0.69648 0.960498,-1.2868 0.960498,-1.3118 0,-0.025 -0.306303,-0.091 -0.680672,-0.14666 -0.374369,-0.0556 -0.680672,-0.14955 -0.680672,-0.20866 0,-0.0591 -0.440051,-2.73551 -0.977893,-5.94754 -1.084081,-6.47422 -1.148362,-6.65756 -2.434156,-6.9429 -0.706946,-0.15688 -0.778077,-0.22215 -0.878553,-0.80616 -0.126263,-0.7339 -0.4834,-0.61338 3.302059,-1.11428 2.547205,-0.33705 3.140133,-0.29159 3.763136,0.28851 0.179604,0.16724 0.558784,2.01359 1.096854,5.34097 0.452289,2.79695 0.868724,5.21332 0.925404,5.36971 0.117494,0.32419 1.282419,-1.12964 3.191317,-3.98279 2.056124,-3.07319 2.572141,-4.65375 1.735724,-5.31652 -0.213926,-0.16951 -0.476468,-0.30821 -0.583434,-0.30821 -0.10696,0 -0.194476,-0.30378 -0.194476,-0.67506 v -0.67506 l 2.221194,-0.18959 2.221194,-0.18959 0.695971,0.42063 c 0.382788,0.23136 0.695981,0.51946 0.695981,0.64024 0,0.30649 -1.307785,3.05087 -1.897374,3.98163 -0.268439,0.42378 -2.637528,3.44033 -5.264638,6.70344 -2.62711,3.26311 -4.864161,6.18992 -4.971223,6.50403 -0.163341,0.47921 -0.136777,0.62177 0.165091,0.88608 0.387182,0.33901 1.257206,0.41452 1.855015,0.16101 0.478011,-0.20271 0.652221,0.19788 0.395052,0.90841 -0.290639,0.803 -0.692236,1.18631 -1.612962,1.53949 -0.96238,0.36916 -2.103892,0.41087 -2.963087,0.10828 z m 61.280096,-0.0186 c -2.07914,-0.41582 -2.90136,-1.01686 -3.22163,-2.35503 -0.23064,-0.96367 0.0164,-1.79405 0.70688,-2.37626 1.05874,-0.8927 2.57011,-1.13296 3.69825,-0.5879 0.95112,0.45954 1.11449,0.81945 0.64749,1.4264 -0.9682,1.25833 -0.23157,2.29057 1.71418,2.40209 3.08001,0.17654 5.27162,-1.91573 5.78689,-5.5246 l 0.14049,-0.98396 -0.93353,0.65113 c -1.96076,1.36761 -4.90606,1.47918 -7.21277,0.27324 -1.88165,-0.98372 -2.80989,-2.72303 -2.79762,-5.24212 0.0247,-5.07795 2.90824,-8.3842 8.06743,-9.25015 1.85493,-0.31134 3.23742,-0.28998 5.07601,0.0784 1.53787,0.30816 1.57321,0.30841 3.10005,0.022 1.40854,-0.26423 1.59964,-0.26897 2.17173,-0.0538 0.47638,0.17916 0.60575,0.3129 0.53775,0.5559 -0.0492,0.176 -0.71061,3.39958 -1.4697,7.16353 -0.75909,3.76394 -1.5581,7.30059 -1.77556,7.85921 -1.16886,3.00249 -3.4537,4.92544 -6.90532,5.81159 -1.35579,0.34807 -5.84336,0.42786 -7.33102,0.13033 z m 7.90022,-8.65745 c 0.77928,-0.59127 1.64535,-2.09221 2.18447,-3.78578 0.54886,-1.72417 1.76758,-7.47541 1.61046,-7.59991 -0.0619,-0.0491 -0.64132,-0.12718 -1.28758,-0.17362 -1.00913,-0.0725 -1.32514,-0.0262 -2.23855,0.32789 -2.79066,1.08188 -4.13312,3.8221 -3.96922,8.10193 0.0871,2.27392 0.42315,3.14438 1.35735,3.51573 0.67598,0.26869 1.70301,0.0994 2.34307,-0.38624 z m 235.13733,8.1817 c -0.12192,-0.28983 0.32476,-2.87828 1.58364,-9.17699 1.99073,-9.96042 1.97571,-9.41274 0.26926,-9.82075 -0.85788,-0.20512 -0.90639,-0.24682 -0.98591,-0.84756 -0.046,-0.3475 -0.0758,-0.64255 -0.0663,-0.65565 0.01,-0.0131 1.52229,-0.20367 3.36163,-0.42349 l 3.34425,-0.39966 0.69116,0.32313 c 0.6462,0.30212 0.69116,0.37354 0.69116,1.09805 v 0.77491 l 0.88971,-0.64984 c 1.84976,-1.35106 4.59718,-1.87033 6.99631,-1.32233 1.45979,0.33345 2.96274,1.47514 3.47112,2.63679 1.06075,2.4238 0.31079,6.91769 -1.51559,9.08161 -2.41512,2.86149 -6.95665,4.1596 -10.86256,3.10486 -0.722,-0.19497 -1.31273,-0.32654 -1.31273,-0.29238 0,0.0342 -0.18012,0.99771 -0.40027,2.14123 -0.51655,2.68307 -0.48077,2.95665 0.4489,3.43189 0.70621,0.36101 0.85762,0.64738 0.61124,1.15613 -0.10152,0.20965 -0.6027,0.24376 -3.58163,0.24376 h -3.46359 z m 11.50918,-8.1384 c 1.10663,-0.51388 2.27287,-1.86619 2.82005,-3.26998 0.9014,-2.31249 1.0241,-5.86401 0.2444,-7.07357 -1.21123,-1.87899 -4.42691,-0.9707 -5.68164,1.6048 -0.56706,1.16396 -2.06065,8.32088 -1.80384,8.64349 0.55763,0.70049 3.00418,0.75321 4.42103,0.0953 z m -177.78024,2.23929 c -0.83256,-0.16943 -2.18558,-0.81603 -2.82487,-1.35001 -1.37046,-1.14471 -1.99321,-3.29186 -1.7033,-5.87276 0.29523,-2.6283 1.25119,-4.44916 3.10849,-5.92086 2.55401,-2.02377 6.71114,-2.778 10.44585,-1.8952 0.95184,0.22499 1.12666,0.22104 2.61983,-0.0592 1.42055,-0.26659 1.66052,-0.27543 2.14036,-0.0788 0.29724,0.1218 0.54044,0.32028 0.54044,0.44108 0,0.12079 -0.3537,1.93934 -0.78601,4.04122 -1.36816,6.65195 -1.55266,7.76414 -1.34021,8.0787 0.23685,0.35068 1.2082,0.38513 1.97074,0.0699 0.51106,-0.21126 0.53105,-0.20303 0.74312,0.30614 0.11986,0.28779 0.16157,0.5955 0.0927,0.68382 -0.0689,0.0883 -0.62665,0.36112 -1.23948,0.60625 -3.2488,1.29952 -5.88899,1.20814 -6.83101,-0.23641 -0.16045,-0.24603 -0.31521,-0.4775 -0.34391,-0.51437 -0.0287,-0.0369 -0.37876,0.18508 -0.77791,0.49323 -0.39915,0.30814 -1.16189,0.7128 -1.69498,0.89923 -1.04889,0.36681 -3.08344,0.51892 -4.11985,0.30802 z m 4.35128,-2.0129 c 0.8037,-0.3883 1.68805,-1.60987 2.29121,-3.16489 0.58824,-1.51655 2.09084,-8.26935 1.87764,-8.43828 -0.28929,-0.22924 -2.06653,-0.30239 -2.91916,-0.12017 -1.15441,0.24673 -2.6015,1.34711 -3.33017,2.53229 -0.89684,1.4587 -1.22328,2.81752 -1.24412,5.1786 -0.0209,2.36014 0.2096,3.2119 1.04883,3.8769 0.65808,0.52146 1.38716,0.56488 2.27577,0.13555 z m 51.46387,2.0129 c -0.83257,-0.16943 -2.18559,-0.81603 -2.82488,-1.35001 -1.37046,-1.14471 -1.99322,-3.29186 -1.70331,-5.87276 0.29524,-2.6283 1.2512,-4.44916 3.1085,-5.92086 2.55401,-2.02377 6.71114,-2.778 10.44585,-1.8952 0.95184,0.22499 1.12666,0.22104 2.61983,-0.0592 1.42055,-0.26659 1.66052,-0.27543 2.14037,-0.0788 0.29724,0.1218 0.54044,0.32028 0.54044,0.44108 0,0.12079 -0.35371,1.93934 -0.78602,4.04122 -1.36816,6.65195 -1.55266,7.76414 -1.34021,8.0787 0.23685,0.35068 1.2082,0.38513 1.97074,0.0699 0.51106,-0.21126 0.53105,-0.20303 0.74312,0.30614 0.11986,0.28779 0.16158,0.5955 0.0927,0.68382 -0.0689,0.0883 -0.62665,0.36112 -1.23948,0.60625 -3.2488,1.29952 -5.88899,1.20814 -6.83102,-0.23641 -0.16044,-0.24603 -0.31519,-0.4775 -0.3439,-0.51437 -0.0287,-0.0369 -0.37876,0.18508 -0.77791,0.49323 -0.39915,0.30814 -1.16189,0.7128 -1.69498,0.89923 -1.04889,0.36681 -3.08344,0.51892 -4.11984,0.30802 z m 4.35128,-2.0129 c 0.80369,-0.3883 1.68804,-1.60987 2.2912,-3.16489 0.58824,-1.51655 2.09084,-8.26935 1.87765,-8.43828 -0.2893,-0.22924 -2.06654,-0.30239 -2.91917,-0.12017 -1.1544,0.24673 -2.60149,1.34711 -3.33017,2.53229 -0.89684,1.4587 -1.22328,2.81752 -1.24412,5.1786 -0.0208,2.36014 0.2096,3.2119 1.04883,3.8769 0.65808,0.52146 1.38716,0.56488 2.27578,0.13555 z m 29.52054,1.99688 c -5.4082,-0.77796 -7.81748,-4.07377 -7.13799,-9.76453 0.29291,-2.45313 0.80733,-4.01104 1.91486,-5.79913 0.73104,-1.18025 1.19311,-1.68896 2.38428,-2.62492 2.62685,-2.06405 5.20586,-2.8312 9.54833,-2.84024 2.98572,-0.006 4.73888,0.31596 6.1608,1.13214 1.35488,0.77771 1.71556,1.31887 1.71556,2.57402 0,0.93974 -0.0741,1.17595 -0.53166,1.69512 -0.80581,0.9143 -1.69782,1.32752 -2.85041,1.32044 -1.04878,-0.006 -1.84523,-0.26274 -2.44307,-0.78619 -0.33777,-0.29575 -0.35129,-0.38516 -0.12472,-0.82482 0.92771,-1.80023 0.92633,-2.32965 -0.008,-2.95243 -1.11688,-0.74468 -3.56842,-0.6407 -5.28987,0.22436 -2.51254,1.26259 -4.17449,4.72696 -4.51697,9.41572 -0.25366,3.47268 0.60401,5.74281 2.52466,6.68247 0.86494,0.42315 1.11274,0.46826 2.57242,0.46826 2.33086,0 2.45269,-0.11998 3.01404,-2.96844 0.3024,-1.53444 0.37154,-2.24677 0.22905,-2.35968 -0.11227,-0.089 -0.74125,-0.24262 -1.39775,-0.34148 -1.3036,-0.1963 -1.31323,-0.20875 -1.0688,-1.38057 l 0.12054,-0.57788 h 4.41327 4.41326 l -0.78479,3.76256 -0.78479,3.76256 -1.17433,0.53065 c -1.36353,0.61614 -2.83426,1.08445 -4.48044,1.42667 -1.40108,0.29126 -5.06512,0.41991 -6.41777,0.22534 z m 58.48372,-0.0625 c -1.93602,-0.50051 -3.00628,-1.70006 -3.01335,-3.37735 -0.002,-0.52327 0.3312,-2.66878 0.74092,-4.7678 l 0.74495,-3.8164 -0.39264,-0.42141 c -0.24848,-0.26668 -0.68372,-0.47366 -1.1854,-0.56373 -0.7468,-0.13408 -0.7977,-0.17875 -0.87812,-0.77051 -0.0469,-0.3455 -0.0328,-0.67074 0.0314,-0.72275 0.0642,-0.052 1.66664,-0.2545 3.56091,-0.44999 3.30447,-0.34101 3.47435,-0.34463 4.1894,-0.0891 l 0.74527,0.2663 -0.82271,4.03624 c -1.193,5.85289 -1.36899,7.28245 -0.98475,7.99889 0.77531,1.4456 2.82802,0.72319 4.57628,-1.61051 1.05253,-1.40498 1.52327,-2.75291 2.39563,-6.85962 l 0.82655,-3.89107 h 2.74765 2.74764 l -0.53323,2.58121 c -1.71257,8.28996 -1.95147,9.65728 -1.74893,10.00954 0.23917,0.41593 0.87155,0.46147 1.86073,0.13397 l 0.66405,-0.21986 0.22423,0.53839 c 0.12333,0.29611 0.19364,0.56011 0.15624,0.58668 -0.43562,0.30938 -2.27035,1.05258 -3.22213,1.3052 -2.89363,0.768 -4.99769,0.0678 -5.25615,-1.74915 l -0.10219,-0.71841 -0.95441,0.84852 c -1.31578,1.16978 -2.98482,1.81436 -4.88173,1.88532 -0.85353,0.0319 -1.73035,-0.0318 -2.23612,-0.16257 z m -265.99158,-0.15397 c -3.89724,-0.7652 -5.63282,-3.20477 -5.14435,-7.23099 0.4788,-3.9466 2.62452,-6.32232 6.72618,-7.44716 1.36869,-0.37535 1.80633,-0.41978 4.15527,-0.42189 2.26734,-0.002 2.77539,0.0448 3.72474,0.34302 2.43962,0.76644 3.81537,2.16547 4.26942,4.34162 0.40079,1.92094 -0.21793,5.03069 -1.32824,6.67588 -0.71559,1.06032 -2.45643,2.43607 -3.72922,2.94714 -2.3126,0.92859 -6.18046,1.28193 -8.6738,0.79238 z m 4.57764,-1.82472 c 2.26444,-0.90482 3.89441,-4.72111 3.64302,-8.52947 -0.073,-1.10597 -0.19384,-1.55396 -0.56199,-2.08369 -1.15936,-1.6682 -3.95474,-1.23552 -5.4979,0.851 -1.71151,2.31416 -2.39531,7.13672 -1.27252,8.97457 0.67925,1.11184 2.11231,1.41775 3.68939,0.78759 z m 241.43683,1.82472 c -3.89723,-0.7652 -5.63282,-3.20477 -5.14435,-7.23099 0.4788,-3.9466 2.62453,-6.32232 6.72618,-7.44716 1.3687,-0.37535 1.80633,-0.41978 4.15527,-0.42189 2.26734,-0.002 2.77539,0.0448 3.72474,0.34302 2.43962,0.76644 3.81537,2.16547 4.26942,4.34162 0.4008,1.92094 -0.21792,5.03069 -1.32824,6.67588 -0.71559,1.06032 -2.45643,2.43607 -3.72922,2.94714 -2.3126,0.92859 -6.18046,1.28193 -8.6738,0.79238 z m 4.57764,-1.82472 c 2.26444,-0.90482 3.89441,-4.72111 3.64302,-8.52947 -0.073,-1.10597 -0.19383,-1.55396 -0.56199,-2.08369 -1.15936,-1.6682 -3.95473,-1.23552 -5.49789,0.851 -1.71151,2.31416 -2.39532,7.13672 -1.27252,8.97457 0.67924,1.11184 2.1123,1.41775 3.68938,0.78759 z M 50.204506,480.28192 c -1.616753,-10.10676 -1.475836,-9.62667 -2.940654,-10.01876 -0.344888,-0.0923 -0.61832,-0.24835 -0.607624,-0.34673 0.01071,-0.0984 0.03258,-0.38692 0.04861,-0.64119 l 0.02918,-0.4623 h 5.370822 5.370821 l -0.117266,0.34673 c -0.06449,0.1907 -0.118459,0.45671 -0.11992,0.59114 -0.002,0.16698 -0.374593,0.32635 -1.176707,0.50306 -0.645726,0.14226 -1.224228,0.36227 -1.285566,0.48892 -0.0896,0.18503 1.564584,12.26711 1.748841,12.77341 0.04963,0.13632 1.55716,-2.48432 6.173499,-10.73163 l 2.219155,-3.96462 1.70168,-0.003 c 0.935923,-0.002 1.700341,0.0485 1.698702,0.11207 -0.01182,0.45962 2.231125,14.31837 2.332468,14.41171 0.12403,0.11423 7.199925,-12.00972 7.199925,-12.33647 0,-0.18577 -1.530348,-0.8039 -1.990274,-0.8039 -0.708951,0 -0.926896,-0.18505 -0.926896,-0.787 v -0.59992 h 4.235033 4.235034 l -0.07399,0.61479 c -0.06746,0.56056 -0.137056,0.62824 -0.789059,0.76736 -0.393286,0.0839 -0.884886,0.25096 -1.092444,0.37122 -0.207557,0.12027 -2.920615,4.4038 -6.029014,9.51896 l -5.65164,9.3003 -1.961291,0.0437 -1.961285,0.0437 -0.111441,-0.58305 c -0.06129,-0.32067 -0.56646,-3.21819 -1.122595,-6.43892 -0.556134,-3.22074 -1.066326,-5.90578 -1.133753,-5.96677 -0.06743,-0.061 -1.871187,2.83339 -4.008346,6.43195 l -3.885751,6.54285 -1.954821,0.002 -1.95482,0.002 z m 84.915204,8.67987 c -1.2303,-0.90688 -1.23859,-1.6491 -0.0816,-7.30547 0.31476,-1.53889 0.5723,-3.15463 0.5723,-3.59053 0,-1.65759 -1.09712,-2.29621 -2.64366,-1.53883 -1.18243,0.57906 -2.87783,2.93387 -3.65493,5.07645 -0.2336,0.64407 -1.675,7.2079 -1.675,7.62758 0,0.0426 -1.22521,0.0775 -2.72269,0.0775 -1.69731,0 -2.72269,-0.0584 -2.72269,-0.15511 0,-0.0853 0.48133,-2.54975 1.06963,-5.47654 0.58829,-2.92678 1.06962,-5.63183 1.06962,-6.01123 0,-0.61288 -0.0705,-0.72387 -0.63205,-0.99518 -0.34763,-0.16795 -0.8196,-0.30562 -1.04882,-0.30594 -0.46408,-8.2e-4 -0.65286,-0.26978 -0.65286,-0.9308 0,-0.50663 -0.28758,-0.43961 3.96096,-0.92311 l 2.69686,-0.30691 0.65788,0.32218 c 0.65302,0.3198 0.65789,0.33076 0.65789,1.47922 v 1.15704 l 0.757,-0.75885 c 2.80044,-2.8073 8.30455,-2.94631 9.95099,-0.25132 0.62529,1.0235 0.57464,2.22811 -0.2725,6.48174 -0.39138,1.96515 -0.71159,3.75229 -0.71159,3.97144 0,0.59081 0.69745,0.79521 1.64406,0.4818 0.97982,-0.3244 1.00753,-0.31917 1.25175,0.23595 0.2585,0.58759 0.21185,0.65135 -0.83077,1.13552 -1.42103,0.65988 -2.97405,1.00421 -4.52932,1.00421 -1.34543,0 -1.47162,-0.0299 -2.11044,-0.50083 z m 38.60834,-0.0197 c 0,-0.59465 0.17551,-0.73346 1.27347,-1.00717 1.66437,-0.41491 1.44954,0.16964 3.25135,-8.8469 l 1.62667,-8.14007 -0.49147,-0.30633 c -0.27031,-0.16849 -0.85073,-0.38247 -1.28983,-0.47553 -0.78038,-0.16539 -0.79579,-0.18165 -0.68491,-0.72267 l 0.11344,-0.55347 4.7615,-0.0462 c 6.56084,-0.0636 9.33781,0.21772 11.98453,1.21427 3.35162,1.26195 4.82421,3.41362 4.79029,6.99933 -0.0474,5.01918 -2.7122,8.97694 -7.26818,10.79496 -3.31615,1.32328 -5.57586,1.60812 -12.76734,1.60935 l -5.29952,8.3e-4 z m 13.53267,-2.08273 c 2.4662,-0.91447 4.02571,-2.70231 5.08164,-5.82562 0.45756,-1.35339 0.51237,-1.79966 0.52626,-4.28458 0.0153,-2.73792 0.008,-2.78522 -0.52926,-3.65285 -0.95824,-1.54623 -2.48828,-2.26704 -5.08463,-2.39539 l -1.57722,-0.078 -1.53388,7.60911 c -0.84363,4.18502 -1.53692,7.83105 -1.54064,8.10229 -0.004,0.27841 0.15839,0.63864 0.37248,0.82724 0.34082,0.30023 0.51402,0.32521 1.71022,0.24657 0.8901,-0.0585 1.74308,-0.24031 2.57503,-0.5488 z m 78.49227,2.30088 c -1.40674,-0.70106 -1.49738,-1.79872 -0.53818,-6.51716 0.86838,-4.27166 0.93667,-4.85478 0.64456,-5.50347 -0.51821,-1.15075 -1.84484,-1.19283 -3.1658,-0.10042 -1.93159,1.59739 -2.81821,3.50868 -3.68995,7.95443 -0.37392,1.90701 -0.7301,3.658 -0.79148,3.89108 l -0.11161,0.42378 h -2.70724 c -1.59347,0 -2.70724,-0.0607 -2.70724,-0.14743 0,-0.0811 0.48703,-2.49086 1.0823,-5.35505 1.18368,-5.69544 1.24054,-6.564 0.47212,-7.21213 -1.21781,-1.02718 -3.00722,0.0359 -4.671,2.77502 -0.93844,1.54498 -1.36099,2.88478 -2.15057,6.81902 l -0.62629,3.12057 h -2.69313 c -2.43556,0 -2.69306,-0.0258 -2.69232,-0.26968 4.5e-4,-0.14832 0.48179,-2.65324 1.06963,-5.56649 0.58784,-2.91325 1.0688,-5.53106 1.0688,-5.81736 0,-0.60439 -0.51385,-1.08492 -1.30777,-1.22295 -0.29687,-0.0516 -0.63935,-0.11756 -0.76106,-0.14655 -0.17015,-0.0405 -0.49644,-1.30847 -0.33672,-1.30847 0.0196,0 1.54248,-0.17368 3.3841,-0.38596 l 3.3484,-0.38597 0.65645,0.32149 c 0.64614,0.31643 0.65646,0.33871 0.65646,1.41838 v 1.09691 l 0.98075,-0.87193 c 1.8439,-1.63929 4.58378,-2.31624 7.06317,-1.7451 1.34179,0.30908 2.51834,1.16365 2.86524,2.08111 l 0.23518,0.62197 1.11612,-0.96517 c 0.71067,-0.61456 1.53003,-1.12904 2.25556,-1.41628 1.00093,-0.39628 1.35223,-0.45183 2.88975,-0.45701 1.93143,-0.006 2.59389,0.17856 3.74902,1.04734 0.70953,0.53364 1.21016,1.63224 1.21016,2.65562 0,0.35636 -0.35096,2.43664 -0.7799,4.62283 -0.42896,2.1862 -0.73078,4.09756 -0.67073,4.24749 0.16267,0.40611 0.70186,0.475 1.64781,0.21054 0.94356,-0.26379 1.10314,-0.2025 1.27816,0.49093 0.11965,0.47403 0.0985,0.4895 -1.56458,1.14248 -1.52323,0.5981 -1.84881,0.66737 -3.37514,0.71818 -1.45183,0.0483 -1.77977,0.0111 -2.33303,-0.26459 z m -63.76392,-0.19415 c 0.0587,-0.19309 0.60941,-2.86648 1.2239,-5.94087 l 1.11726,-5.5898 -0.39148,-0.42018 c -0.24693,-0.26503 -0.68337,-0.4726 -1.18192,-0.56213 -0.73003,-0.13109 -0.79992,-0.189 -0.91469,-0.75774 -0.0746,-0.36961 -0.043,-0.65562 0.0791,-0.71539 0.11183,-0.0548 1.73941,-0.26478 3.61682,-0.46668 3.3486,-0.36014 3.42619,-0.36169 4.08266,-0.0815 0.77356,0.3301 0.78588,0.4032 0.37748,2.24036 -0.38469,1.73046 -0.37831,1.74742 0.30693,0.81607 1.46935,-1.99709 3.37571,-3.11357 5.52361,-3.23496 1.9698,-0.11132 3.1254,0.59549 3.32845,2.03582 0.0907,0.64358 0.0191,0.9059 -0.44131,1.61572 -0.58526,0.90237 -1.55371,1.54118 -2.33642,1.54118 -0.25585,0 -0.80997,-0.13937 -1.23137,-0.30972 -0.75593,-0.30559 -0.76458,-0.31895 -0.64686,-0.99952 0.19491,-1.12677 -0.53829,-1.47346 -1.81331,-0.85742 -1.11299,0.53775 -3.15349,3.30028 -3.76304,5.0946 -0.12957,0.38141 -0.51514,2.08038 -0.85681,3.7755 l -0.62123,3.08205 -2.78219,0.0429 -2.7822,0.0429 z m 127.96642,0 c 0.0587,-0.19309 0.60941,-2.86648 1.2239,-5.94087 l 1.11726,-5.5898 -0.39149,-0.42018 c -0.24692,-0.26503 -0.68335,-0.4726 -1.18191,-0.56213 -0.73003,-0.13109 -0.79992,-0.189 -0.9147,-0.75774 -0.0746,-0.36961 -0.043,-0.65562 0.0791,-0.71539 0.11184,-0.0548 1.7394,-0.26478 3.61682,-0.46668 3.3486,-0.36014 3.42619,-0.36169 4.08266,-0.0815 0.77356,0.3301 0.78588,0.4032 0.37747,2.24036 -0.38468,1.73046 -0.3783,1.74742 0.30694,0.81607 1.46935,-1.99709 3.37572,-3.11357 5.52361,-3.23496 1.9698,-0.11132 3.12541,0.59549 3.32845,2.03582 0.0907,0.64358 0.0191,0.9059 -0.4413,1.61572 -0.58527,0.90237 -1.55372,1.54118 -2.33643,1.54118 -0.25585,0 -0.80996,-0.13937 -1.23137,-0.30972 -0.75594,-0.30559 -0.76458,-0.31895 -0.64685,-0.99952 0.1949,-1.12677 -0.5383,-1.47346 -1.81332,-0.85742 -1.11298,0.53775 -3.15348,3.30028 -3.76304,5.0946 -0.12957,0.38141 -0.51513,2.08038 -0.85681,3.7755 l -0.62123,3.08205 -2.78219,0.0429 -2.7822,0.0429 z m -186.6959,-35.70213 c -0.83257,-0.16942 -2.18559,-0.81603 -2.82488,-1.35001 -1.37046,-1.1447 -1.99321,-3.29185 -1.7033,-5.87275 0.29523,-2.6283 1.25119,-4.44916 3.10849,-5.92087 2.55401,-2.02376 6.71114,-2.778 10.44585,-1.8952 0.95184,0.225 1.12666,0.22105 2.61983,-0.0592 1.42055,-0.26659 1.66052,-0.27542 2.14037,-0.0788 0.29724,0.1218 0.54043,0.32028 0.54043,0.44107 0,0.1208 -0.3537,1.93935 -0.78601,4.04123 -1.36815,6.65194 -1.55266,7.76414 -1.34021,8.0787 0.23685,0.35067 1.2082,0.38513 1.97074,0.0699 0.51106,-0.21127 0.53105,-0.20303 0.74312,0.30614 0.11986,0.28779 0.16158,0.5955 0.0927,0.68381 -0.0689,0.0883 -0.62664,0.36113 -1.23948,0.60626 -3.2488,1.29951 -5.88899,1.20814 -6.83101,-0.23641 -0.16044,-0.24603 -0.3152,-0.4775 -0.34391,-0.51437 -0.0287,-0.0368 -0.37876,0.18508 -0.77791,0.49322 -0.39915,0.30815 -1.16189,0.7128 -1.69498,0.89923 -1.04888,0.36682 -3.08344,0.51893 -4.11984,0.30802 z m 4.35128,-2.01289 c 0.80369,-0.3883 1.68804,-1.60988 2.2912,-3.16489 0.58824,-1.51655 2.09084,-8.26935 1.87765,-8.43828 -0.2893,-0.22924 -2.06654,-0.3024 -2.91917,-0.12017 -1.15441,0.24673 -2.6015,1.3471 -3.33016,2.53229 -0.89685,1.4587 -1.22329,2.81751 -1.24413,5.1786 -0.0208,2.36014 0.2096,3.2119 1.04883,3.8769 0.65808,0.52146 1.38716,0.56488 2.27578,0.13555 z m 17.15929,1.95042 c -1.65658,-0.37103 -2.79328,-1.2407 -3.51048,-2.6858 -0.61238,-1.23391 -0.6142,-4.44682 -0.004,-6.25771 1.04646,-3.10324 3.10794,-5.04105 6.36155,-5.97991 1.67879,-0.48444 5.04936,-0.5002 6.33694,-0.0297 l 0.90727,0.33157 0.0979,-0.33228 c 0.0539,-0.18275 0.24991,-1.08146 0.43566,-1.99713 0.33178,-1.63557 0.33093,-1.67216 -0.0481,-2.08037 -0.23057,-0.24831 -0.75144,-0.50398 -1.2943,-0.63533 -0.77601,-0.18775 -0.90802,-0.27762 -0.90547,-0.61641 0.002,-0.21813 0.0691,-0.47905 0.14999,-0.57982 0.0911,-0.11351 1.53028,-0.28548 3.78321,-0.45206 3.51709,-0.26004 3.64914,-0.25956 4.03128,0.0145 0.2173,0.15583 0.39473,0.46327 0.3943,0.68322 -4.3e-4,0.21994 -0.74431,4.13392 -1.65306,8.69773 -0.90875,4.5638 -1.65228,8.56004 -1.65228,8.88052 0,0.8803 0.3893,1.05561 1.59227,0.71706 0.53459,-0.15045 0.99463,-0.25107 1.02233,-0.22361 0.0277,0.0275 0.14555,0.27358 0.2619,0.54693 0.19377,0.45524 0.1676,0.52148 -0.31147,0.78833 -2.12526,1.18381 -5.42013,1.66796 -6.83723,1.00464 -0.54477,-0.25499 -1.36766,-1.28679 -1.36766,-1.71487 0,-0.0963 -0.42087,0.15833 -0.93526,0.56593 -1.59027,1.26011 -4.61187,1.85712 -6.85575,1.35455 z m 5.55453,-2.00064 c 0.97613,-0.43612 1.8357,-1.4389 2.39909,-2.7988 0.38769,-0.93582 1.77831,-7.20908 1.78109,-8.03477 10e-4,-0.37649 -0.55139,-0.61089 -1.78632,-0.75763 -3.62578,-0.43083 -6.21528,2.88203 -6.26429,8.01422 -0.0217,2.26926 0.1835,2.94263 1.0784,3.53931 0.74215,0.49483 1.7387,0.50827 2.79203,0.0377 z m 28.14517,1.98459 c -1.93601,-0.50051 -3.00628,-1.70006 -3.01335,-3.37736 -0.002,-0.52326 0.33121,-2.66877 0.74093,-4.76779 l 0.74494,-3.81641 -0.39264,-0.4214 c -0.24847,-0.26668 -0.68371,-0.47366 -1.1854,-0.56374 -0.74679,-0.13407 -0.7977,-0.17874 -0.87811,-0.7705 -0.0469,-0.34551 -0.0328,-0.67074 0.0314,-0.72275 0.0642,-0.052 1.66663,-0.2545 3.5609,-0.44999 3.30447,-0.34102 3.47435,-0.34463 4.1894,-0.0891 l 0.74528,0.2663 -0.82272,4.03624 c -1.193,5.85289 -1.36899,7.28245 -0.98474,7.99889 0.7753,1.44559 2.82801,0.72319 4.57628,-1.61052 1.05252,-1.40498 1.52327,-2.7529 2.39562,-6.85961 l 0.82655,-3.89108 h 2.74765 2.74765 l -0.53324,2.58121 c -1.71257,8.28997 -1.95147,9.65729 -1.74892,10.00954 0.23917,0.41594 0.87154,0.46147 1.86072,0.13397 l 0.66405,-0.21985 0.22423,0.53838 c 0.12334,0.29611 0.19364,0.56012 0.15624,0.58668 -0.43561,0.30939 -2.27035,1.05259 -3.22213,1.30521 -2.89362,0.76799 -4.99769,0.0678 -5.25614,-1.74915 l -0.10219,-0.71841 -0.95442,0.84851 c -1.31578,1.16978 -2.98481,1.81437 -4.88173,1.88533 -0.85352,0.0319 -1.73034,-0.0318 -2.23612,-0.16257 z m 68.89927,0.0625 c -5.4082,-0.77795 -7.81748,-4.07376 -7.13799,-9.76452 0.29291,-2.45313 0.80733,-4.01104 1.91486,-5.79913 0.73104,-1.18026 1.19312,-1.68896 2.38428,-2.62492 2.62685,-2.06405 5.20586,-2.8312 9.54833,-2.84024 2.98572,-0.006 4.73888,0.31596 6.1608,1.13214 1.35488,0.77771 1.71556,1.31887 1.71556,2.57402 0,0.93974 -0.0741,1.17595 -0.53166,1.69512 -0.80581,0.9143 -1.69782,1.32751 -2.85041,1.32044 -1.04878,-0.006 -1.84523,-0.26274 -2.44307,-0.7862 -0.33777,-0.29575 -0.35129,-0.38515 -0.12472,-0.82481 0.92772,-1.80023 0.92633,-2.32966 -0.008,-2.95243 -1.11687,-0.74468 -3.56842,-0.64071 -5.28987,0.22436 -2.51253,1.26259 -4.17448,4.72696 -4.51696,9.41572 -0.25366,3.47268 0.604,5.74281 2.52466,6.68246 0.86493,0.42316 1.11273,0.46827 2.57241,0.46827 2.33087,0 2.45269,-0.11998 3.01405,-2.96845 0.30239,-1.53444 0.37154,-2.24676 0.22904,-2.35967 -0.11226,-0.089 -0.74124,-0.24262 -1.39774,-0.34148 -1.3036,-0.1963 -1.31324,-0.20876 -1.0688,-1.38057 l 0.12055,-0.57788 h 4.41325 4.41326 l -0.78479,3.76256 -0.78478,3.76256 -1.17433,0.53064 c -1.36353,0.61614 -2.83427,1.08446 -4.48045,1.42667 -1.40107,0.29127 -5.06511,0.41992 -6.41777,0.22534 z m 59.97631,-0.0805 c -1.08449,-0.2086 -2.88678,-0.82698 -3.52205,-1.20845 -0.3114,-0.18699 -0.29124,-0.32577 0.30699,-2.11351 l 0.64026,-1.91337 0.64844,0.0528 c 1.34796,0.1097 1.38494,0.1491 1.42434,1.51804 0.0416,1.44307 0.25964,1.73271 1.61328,2.14234 2.6687,0.80759 5.47851,-1.15665 4.27546,-2.98882 -0.4581,-0.69767 -1.1296,-1.08141 -3.00201,-1.71554 -0.98648,-0.3341 -2.16079,-0.82142 -2.60957,-1.08293 -0.98157,-0.57199 -1.83856,-1.54038 -2.01218,-2.27376 -0.19571,-0.8266 0.0317,-2.23388 0.47118,-2.91657 1.43109,-2.22279 5.64094,-3.30295 10.18002,-2.61198 1.21046,0.18426 3.39508,0.75172 3.63981,0.94544 0.0405,0.032 -0.214,0.92769 -0.56537,1.99043 l -0.63885,1.93226 h -1.13631 -1.13631 v -1.21204 c 0,-1.00998 -0.0703,-1.28283 -0.42161,-1.63674 -1.49963,-1.51067 -4.86721,-0.89207 -5.33995,0.98091 -0.29213,1.15738 0.56083,1.89582 3.23488,2.80058 2.48903,0.84216 3.64296,1.53641 4.34091,2.61168 0.49292,0.7594 0.54173,0.96768 0.46941,2.00328 -0.13938,1.99608 -1.28226,3.27479 -3.73301,4.17667 -1.98801,0.73159 -4.91535,0.94487 -7.12776,0.51931 z m -141.74042,-0.17817 c -1.78301,-0.74866 -1.88948,-1.6644 -0.81032,-6.96911 1.08476,-5.33226 1.06912,-5.55066 -0.42216,-5.8958 -0.96738,-0.22389 -1.10811,-0.35017 -1.1121,-0.99789 -0.004,-0.57727 -0.2161,-0.52491 4.01259,-0.98841 l 3.14043,-0.34421 0.70027,0.34294 c 0.53936,0.26413 0.67859,0.41976 0.6059,0.67722 -0.0519,0.18385 -0.58159,2.84566 -1.17708,5.91513 -1.1596,5.97721 -1.16605,6.20796 -0.17356,6.20796 0.26708,0 0.79242,-0.10159 1.16744,-0.22575 0.66444,-0.21998 0.6866,-0.21579 0.8689,0.16414 0.30388,0.63333 0.22586,0.8074 -0.54247,1.2103 -1.82111,0.95495 -5.03141,1.41844 -6.25784,0.90348 z m 100.73952,0 c -1.783,-0.74866 -1.88948,-1.6644 -0.81032,-6.96911 1.08476,-5.33226 1.06912,-5.55066 -0.42216,-5.8958 -0.96737,-0.22389 -1.10811,-0.35017 -1.1121,-0.99789 -0.004,-0.57727 -0.2161,-0.52491 4.0126,-0.98841 l 3.14042,-0.34421 0.70028,0.34294 c 0.53935,0.26413 0.67858,0.41976 0.60589,0.67722 -0.0519,0.18385 -0.58159,2.84566 -1.17708,5.91513 -1.1596,5.97721 -1.16605,6.20796 -0.17355,6.20796 0.26707,0 0.79242,-0.10159 1.16743,-0.22575 0.66444,-0.21998 0.68661,-0.21579 0.8689,0.16414 0.30388,0.63333 0.22586,0.8074 -0.54247,1.2103 -1.8211,0.95495 -5.0314,1.41844 -6.25784,0.90348 z m 29.45768,0.14695 c -1.26476,-0.25457 -1.85565,-1.08952 -1.85565,-2.62212 0,-0.91083 0.91641,-5.8613 2.54277,-13.73615 0.21673,-1.04942 0.33916,-2.1061 0.27206,-2.34818 -0.1615,-0.58263 -0.95954,-1.06031 -1.77143,-1.06031 -0.54982,0 -0.65402,-0.0554 -0.65179,-0.34673 0.008,-0.99494 -0.0945,-0.96156 3.82853,-1.25161 l 3.60965,-0.26689 0.46086,0.34307 c 0.25347,0.18869 0.46086,0.49037 0.46086,0.67041 0,0.18003 -0.74388,4.15308 -1.65307,8.82898 -0.90918,4.67591 -1.65306,8.66879 -1.65306,8.87306 0,0.58367 0.4793,0.80501 1.32765,0.61312 0.3929,-0.0889 0.85875,-0.21056 1.03523,-0.2704 0.248,-0.0841 0.37528,0.0219 0.56058,0.46678 0.27481,0.65982 0.20622,0.72707 -1.41298,1.38539 -1.65733,0.67381 -3.81845,0.97957 -5.10021,0.72158 z m -202.75126,-0.47455 c 0,-0.58788 0.33651,-0.86997 1.29383,-1.0846 1.70138,-0.38144 1.49781,0.16425 3.28981,-8.81867 l 1.61169,-8.07907 -0.47531,-0.34146 c -0.26143,-0.18779 -0.82399,-0.41584 -1.25013,-0.50677 -0.62791,-0.13397 -0.77481,-0.23484 -0.77481,-0.53203 0,-0.896 -0.32038,-0.85469 6.58444,-0.84885 7.12307,0.006 8.65255,0.13758 10.64743,0.91577 2.08261,0.81241 2.91841,2.06098 2.75383,4.11379 -0.11539,1.43933 -0.80133,2.56603 -2.15215,3.5351 -0.98682,0.70792 -3.83488,1.90891 -4.52686,1.90891 -0.24532,0 -0.10751,0.16222 0.47133,0.55482 0.44991,0.30516 0.94113,0.74348 1.09161,0.97405 0.15047,0.23058 0.76934,1.76657 1.37525,3.41331 0.60591,1.64674 1.23863,3.11603 1.40603,3.26508 0.16741,0.14906 0.66206,0.35145 1.09924,0.44976 1.06723,0.24 1.13482,0.30573 0.98127,0.95428 l -0.13245,0.55944 h -2.85431 c -2.57459,0 -2.93892,-0.034 -3.71761,-0.34673 -0.47908,-0.19242 -1.02124,-0.56494 -1.21821,-0.83703 -0.19521,-0.26967 -0.86292,-2.01891 -1.4838,-3.88722 -0.62088,-1.86831 -1.25081,-3.51343 -1.39983,-3.65581 -0.34079,-0.32561 -1.37356,-0.67344 -1.99955,-0.67344 -0.56236,0 -0.48006,-0.24745 -1.29797,3.90222 -0.33114,1.68007 -0.55565,3.15054 -0.49891,3.26771 0.1165,0.24057 1.51058,0.84338 1.95044,0.84338 0.42719,0 0.53935,0.23933 0.39597,0.84494 l -0.12832,0.54198 h -5.52098 -5.52097 z m 14.25024,-11.27913 c 3.65793,-1.08447 5.09902,-5.48563 2.18812,-6.68263 -1.35656,-0.55784 -3.98616,-0.52773 -4.37643,0.0501 -0.16152,0.23914 -1.56013,6.50417 -1.56013,6.98854 0,0.23645 2.57495,-0.008 3.74844,-0.35601 z m 114.53101,11.40965 c -1.40674,-0.70106 -1.49738,-1.79873 -0.53818,-6.51716 0.86838,-4.27166 0.93668,-4.85478 0.64456,-5.50347 -0.5182,-1.15075 -1.84483,-1.19284 -3.16579,-0.10043 -1.9316,1.5974 -2.81822,3.50869 -3.68995,7.95444 -0.37393,1.90701 -0.7301,3.65799 -0.79149,3.89107 l -0.11161,0.42378 h -2.70723 c -1.59348,0 -2.70724,-0.0607 -2.70724,-0.14742 0,-0.0811 0.48703,-2.49086 1.08229,-5.35505 1.18368,-5.69544 1.24054,-6.564 0.47212,-7.21213 -1.21781,-1.02718 -3.00721,0.0359 -4.67099,2.77502 -0.93845,1.54497 -1.36099,2.88478 -2.15058,6.81902 l -0.62628,3.12056 h -2.69314 c -2.43555,0 -2.69306,-0.0258 -2.69232,-0.26968 4.5e-4,-0.14832 0.48179,-2.65324 1.06963,-5.56648 0.58785,-2.91325 1.06881,-5.53106 1.06881,-5.81736 0,-0.6044 -0.51386,-1.08492 -1.30778,-1.22295 -0.29687,-0.0516 -0.63934,-0.11757 -0.76105,-0.14655 -0.17015,-0.0405 -0.49644,-1.30847 -0.33672,-1.30847 0.0196,0 1.54248,-0.17369 3.38409,-0.38596 l 3.3484,-0.38597 0.65646,0.32148 c 0.64614,0.31644 0.65645,0.33872 0.65645,1.41839 v 1.09691 l 0.98076,-0.87193 c 1.8439,-1.6393 4.58377,-2.31625 7.06316,-1.74511 1.3418,0.30909 2.51835,1.16366 2.86525,2.08111 l 0.23517,0.62198 1.11612,-0.96517 c 0.71068,-0.61456 1.53004,-1.12904 2.25557,-1.41629 1.00092,-0.39627 1.35222,-0.45183 2.88974,-0.457 1.93143,-0.007 2.5939,0.17856 3.74903,1.04734 0.70953,0.53364 1.21016,1.63223 1.21016,2.65562 0,0.35636 -0.35096,2.43663 -0.77991,4.62283 -0.42895,2.18619 -0.73078,4.09756 -0.67073,4.24748 0.16267,0.40612 0.70186,0.47501 1.64782,0.21055 0.94355,-0.26379 1.10314,-0.2025 1.27816,0.49093 0.11964,0.47403 0.0985,0.4895 -1.56458,1.14248 -1.52323,0.59809 -1.84882,0.66737 -3.37514,0.71818 -1.45184,0.0483 -1.77977,0.0111 -2.33304,-0.26459 z m 53.7007,-0.19416 c 0.0587,-0.19308 0.60941,-2.86648 1.2239,-5.94086 l 1.11727,-5.5898 -0.39149,-0.42019 c -0.24693,-0.26502 -0.68336,-0.47259 -1.18192,-0.56212 -0.73002,-0.1311 -0.79992,-0.189 -0.91469,-0.75775 -0.0746,-0.3696 -0.043,-0.65561 0.0791,-0.71538 0.11184,-0.0548 1.73941,-0.26478 3.61682,-0.46669 3.3486,-0.36013 3.4262,-0.36168 4.08267,-0.0815 0.77355,0.33009 0.78587,0.4032 0.37747,2.24035 -0.38468,1.73047 -0.37831,1.74743 0.30693,0.81608 1.46935,-1.99709 3.37572,-3.11357 5.52362,-3.23496 1.9698,-0.11133 3.1254,0.59549 3.32844,2.03581 0.0907,0.64359 0.0191,0.90591 -0.4413,1.61573 -0.58527,0.90236 -1.55371,1.54118 -2.33643,1.54118 -0.25585,0 -0.80996,-0.13938 -1.23136,-0.30973 -0.75594,-0.30558 -0.76459,-0.31894 -0.64686,-0.99951 0.1949,-1.12677 -0.5383,-1.47346 -1.81332,-0.85742 -1.11298,0.53775 -3.15348,3.30028 -3.76304,5.0946 -0.12957,0.3814 -0.51513,2.08038 -0.85681,3.7755 l -0.62123,3.08204 -2.78219,0.0429 -2.7822,0.0429 z m -107.4135,-16.87876 c -0.49342,-0.19531 -0.75554,-0.44101 -0.95281,-0.89313 -0.73588,-1.68651 1.0357,-3.32344 3.37107,-3.11486 1.12158,0.10017 1.81441,0.4995 2.07852,1.19802 0.76716,2.02897 -2.03936,3.78273 -4.49678,2.80997 z m 100.73952,0 c -0.49343,-0.19531 -0.75554,-0.44101 -0.95281,-0.89313 -0.73587,-1.68651 1.0357,-3.32344 3.37107,-3.11486 1.12158,0.10017 1.8144,0.4995 2.07852,1.19802 0.76717,2.02897 -2.03935,3.78273 -4.49678,2.80997 z"
       id="path1" /></g></svg>
